<?xml version="1.0" encoding="utf-8"?>
<!-- Generator: Adobe Illustrator 18.1.1, SVG Export Plug-In . SVG Version: 6.00 Build 0)  -->
<!DOCTYPE svg PUBLIC "-//W3C//DTD SVG 1.1//EN" "http://www.w3.org/Graphics/SVG/1.1/DTD/svg11.dtd">
<svg version="1.1" id="Ebene_1" xmlns="http://www.w3.org/2000/svg" xmlns:xlink="http://www.w3.org/1999/xlink" x="0px" y="0px"
	 viewBox="0 0 150 150" enable-background="new 0 0 150 150" xml:space="preserve">
<path fill="#00BCD4" d="M75.3,126c-28.2,0-51-22.8-51-51s22.8-51,51-51s51,22.8,51,51S103.2,126,75.3,126z M75.3,30
	c-24.9,0-45,20.1-45,45s20.1,45,45,45s45-20.1,45-45S99.9,30,75.3,30z"/>
<path fill="#00BCD4" d="M45.9,111.9l-5.4-2.4c1.5-3.6,6.3-5.7,11.4-8.1s11.4-5.1,11.4-8.4v-4.5c-1.8-1.5-4.8-4.8-5.4-9.6
	c-1.5-1.5-3.9-4.2-3.9-7.8c0-2.1,0.9-3.9,1.5-5.1c-0.6-2.4-1.2-6.9-1.2-10.5c0-11.7,8.1-19.5,21-19.5c3.6,0,8.1,0.9,10.5,3.6
	c5.7,1.2,10.5,7.8,10.5,15.9c0,5.1-0.9,9.3-1.5,11.4c0.6,0.9,1.2,2.4,1.2,4.2c0,3.9-2.1,6.6-3.9,7.8c-0.6,4.8-3.3,7.8-5.1,9.3V93
	c0,2.7,5.4,4.8,10.2,6.6c5.7,2.1,11.7,4.5,13.8,9.3l-5.7,2.1c-0.9-2.4-5.7-4.2-10.2-5.7c-6.6-2.4-14.1-5.1-14.1-12v-7.8l1.5-0.9
	c0,0,3.6-2.4,3.6-7.2v-2.1l1.8-0.9c0.3,0,1.8-0.9,1.8-3.3c0-0.6-0.6-1.5-0.9-1.8l-1.2-1.2l0.6-1.5c0,0,1.5-4.8,1.5-10.8
	c0-5.7-3.3-9.9-6-9.9h-1.8L81,44.4c0-1.2-2.1-2.4-5.7-2.4c-9.3,0-15,5.1-15,13.5c0,3.9,1.5,10.5,1.5,10.5l0.3,1.5L60.9,69
	c-0.3,0-0.9,0.9-0.9,2.1c0,1.5,1.8,3.3,2.7,3.9l1.2,0.9v1.5c0,4.5,3.9,6.9,3.9,7.2l1.5,0.9v7.8c0,7.2-7.8,10.8-15,13.8
	C51,108.3,46.5,110.4,45.9,111.9L45.9,111.9z"/>
</svg>
