<?xml version="1.0" encoding="utf-8"?>
<!-- Generator: Adobe Illustrator 18.1.1, SVG Export Plug-In . SVG Version: 6.00 Build 0)  -->
<!DOCTYPE svg PUBLIC "-//W3C//DTD SVG 1.1//EN" "http://www.w3.org/Graphics/SVG/1.1/DTD/svg11.dtd">
<svg version="1.1" id="Ebene_1" xmlns="http://www.w3.org/2000/svg" xmlns:xlink="http://www.w3.org/1999/xlink" x="0px" y="0px"
	 viewBox="0 0 150 150" enable-background="new 0 0 150 150" xml:space="preserve">
<path fill="#00BCD4" d="M111,114H39c-5.1,0-9-3.9-9-9V39c0-5.1,3.3-9,7.5-9H42v6h-4.5c-0.6,0-1.5,1.2-1.5,3v66c0,1.8,1.2,3,3,3h72
	c1.8,0,3-1.2,3-3V39c0-1.8-0.9-3-1.5-3H108v-6h4.5c4.2,0,7.5,3.9,7.5,9v66C120,110.1,116.1,114,111,114z"/>
<path fill="#00BCD4" d="M51,42c-1.8,0-3-1.2-3-3V27c0-1.8,1.2-3,3-3s3,1.2,3,3v12C54,40.8,52.8,42,51,42z"/>
<path fill="#00BCD4" d="M99,42c-1.8,0-3-1.2-3-3V27c0-1.8,1.2-3,3-3s3,1.2,3,3v12C102,40.8,100.8,42,99,42z"/>
<path fill="#00BCD4" d="M60,30h30v6H60V30z"/>
<path fill="#00BCD4" d="M36,48h78v6H36V48z"/>
<path fill="#00BCD4" d="M102,60h6v6h-6V60z"/>
<path fill="#00BCD4" d="M90,60h6v6h-6V60z"/>
<path fill="#00BCD4" d="M78,60h6v6h-6V60z"/>
<path fill="#00BCD4" d="M66,60h6v6h-6V60z"/>
<path fill="#00BCD4" d="M54,60h6v6h-6V60z"/>
<path fill="#00BCD4" d="M102,72h6v6h-6V72z"/>
<path fill="#00BCD4" d="M90,72h6v6h-6V72z"/>
<path fill="#00BCD4" d="M78,72h6v6h-6V72z"/>
<path fill="#00BCD4" d="M66,72h6v6h-6V72z"/>
<path fill="#00BCD4" d="M54,72h6v6h-6V72z"/>
<path fill="#00BCD4" d="M42,72h6v6h-6V72z"/>
<path fill="#00BCD4" d="M102,84h6v6h-6V84z"/>
<path fill="#00BCD4" d="M90,84h6v6h-6V84z"/>
<path fill="#00BCD4" d="M78,84h6v6h-6V84z"/>
<path fill="#00BCD4" d="M66,84h6v6h-6V84z"/>
<path fill="#00BCD4" d="M54,84h6v6h-6V84z"/>
<path fill="#00BCD4" d="M42,84h6v6h-6V84z"/>
<path fill="#00BCD4" d="M90,96h6v6h-6V96z"/>
<path fill="#00BCD4" d="M78,96h6v6h-6V96z"/>
<path fill="#00BCD4" d="M66,96h6v6h-6V96z"/>
<path fill="#00BCD4" d="M54,96h6v6h-6V96z"/>
<path fill="#00BCD4" d="M42,96h6v6h-6V96z"/>
</svg>
