<svg xmlns="http://www.w3.org/2000/svg" xmlns:xlink="http://www.w3.org/1999/xlink" preserveAspectRatio="xMidYMid" width="153" height="100" viewBox="0 0 153 100">
  <defs>
    <style>

      .cls-2 {
        fill: #18ffff;
      }
    </style>
  </defs>
  <path d="M129.411,47.059 C116.416,47.059 105.881,36.524 105.881,23.529 C105.881,10.533 116.416,-0.001 129.411,-0.001 C142.407,-0.001 152.941,10.533 152.941,23.529 C152.941,36.524 142.407,47.059 129.411,47.059 ZM129.411,44.706 C134.087,44.706 138.395,43.172 141.898,40.605 C141.898,40.605 140.605,40.605 140.605,40.605 C140.605,40.605 120.571,21.965 120.571,21.965 C120.571,21.965 109.896,31.764 109.896,31.764 C113.109,39.369 120.636,44.706 129.411,44.706 ZM150.588,23.529 C150.588,11.833 141.107,2.352 129.411,2.352 C117.716,2.352 108.234,11.833 108.234,23.529 C108.234,25.472 108.518,27.344 109.008,29.132 C109.008,29.132 120.582,18.507 120.582,18.507 C120.582,18.507 135.521,32.406 135.521,32.406 C135.521,32.406 142.555,26.757 142.555,26.757 C142.555,26.757 148.889,31.844 148.889,31.844 C149.981,29.291 150.588,26.481 150.588,23.529 ZM147.710,34.153 C147.710,34.153 142.555,30.010 142.555,30.010 C142.555,30.010 137.399,34.153 137.399,34.153 C137.399,34.153 143.216,39.566 143.216,39.566 C145.000,38.029 146.519,36.200 147.710,34.153 ZM135.687,24.215 C132.710,24.215 130.288,21.821 130.288,18.878 C130.288,15.935 132.710,13.541 135.687,13.541 C138.664,13.541 141.085,15.935 141.085,18.878 C141.085,21.821 138.664,24.215 135.687,24.215 ZM135.687,16.067 C134.118,16.067 132.843,17.327 132.843,18.878 C132.843,20.429 134.118,21.689 135.687,21.689 C137.255,21.689 138.530,20.429 138.530,18.878 C138.530,17.327 137.255,16.067 135.687,16.067 ZM76.469,100.001 C63.473,100.001 52.939,89.467 52.939,76.471 C52.939,63.476 63.473,52.941 76.469,52.941 C89.464,52.941 99.999,63.476 99.999,76.471 C99.999,89.467 89.464,100.001 76.469,100.001 ZM76.469,55.294 C64.773,55.294 55.292,64.776 55.292,76.471 C55.292,88.167 64.773,97.648 76.469,97.648 C88.164,97.648 97.646,88.167 97.646,76.471 C97.646,64.776 88.164,55.294 76.469,55.294 ZM84.286,83.510 C81.507,85.061 77.944,84.736 76.732,82.753 C75.521,80.770 76.803,77.921 79.583,76.370 C81.542,75.289 83.751,75.180 85.284,75.902 C85.284,75.902 85.284,68.473 85.284,68.473 C85.284,68.473 74.274,70.204 74.274,70.204 C74.274,70.204 74.274,80.445 74.274,80.517 C74.416,82.320 73.454,84.412 71.281,85.602 C68.501,87.153 64.938,86.828 63.727,84.845 C62.515,82.861 63.798,80.013 66.577,78.462 C68.537,77.380 70.746,77.272 72.278,77.993 C72.278,77.993 72.278,69.411 72.278,69.411 C72.278,68.870 72.706,68.401 73.276,68.401 C73.276,68.401 86.317,66.382 86.317,66.382 C86.887,66.382 87.350,66.814 87.279,67.283 C87.279,67.283 87.279,78.354 87.279,78.426 C87.421,80.229 86.459,82.320 84.286,83.510 ZM71.744,80.121 C70.746,79.291 69.143,79.291 67.361,80.229 C65.544,81.166 64.796,82.789 65.651,83.835 C66.506,84.881 68.679,85.061 70.425,84.051 C71.958,83.150 72.991,81.094 71.744,80.121 ZM84.714,78.065 C83.645,77.308 82.112,77.272 80.331,78.210 C78.549,79.147 77.801,80.770 78.656,81.816 C79.511,82.861 81.685,83.006 83.431,81.996 C85.034,81.094 86.103,79.039 84.714,78.065 ZM76.469,47.059 C63.473,47.059 52.939,36.524 52.939,23.529 C52.939,10.533 63.473,-0.001 76.469,-0.001 C89.464,-0.001 99.999,10.533 99.999,23.529 C99.999,36.524 89.464,47.059 76.469,47.059 ZM76.469,2.352 C64.773,2.352 55.292,11.833 55.292,23.529 C55.292,35.224 64.773,44.706 76.469,44.706 C88.164,44.706 97.646,35.224 97.646,23.529 C97.646,11.833 88.164,2.352 76.469,2.352 ZM70.608,11.749 C70.608,11.749 87.043,22.940 87.043,22.940 C87.043,22.940 70.608,34.131 70.608,34.131 C70.608,34.131 70.608,11.749 70.608,11.749 ZM23.526,100.001 C10.531,100.001 -0.004,89.467 -0.004,76.471 C-0.004,63.476 10.531,52.941 23.526,52.941 C36.522,52.941 47.056,63.476 47.056,76.471 C47.056,89.467 36.522,100.001 23.526,100.001 ZM23.526,55.294 C11.831,55.294 2.349,64.776 2.349,76.471 C2.349,88.167 11.831,97.648 23.526,97.648 C35.222,97.648 44.703,88.167 44.703,76.471 C44.703,64.776 35.222,55.294 23.526,55.294 ZM20.707,85.027 C20.707,85.027 12.083,89.292 12.083,89.292 C11.111,89.743 10.334,88.873 10.692,87.901 C10.692,87.901 14.955,79.271 14.955,79.271 C15.027,78.899 15.172,78.539 15.459,78.250 C15.459,78.250 30.780,62.919 30.780,62.919 C31.549,62.150 32.796,62.150 33.566,62.919 C33.566,62.919 37.047,66.404 37.047,66.404 C37.817,67.174 37.817,68.422 37.047,69.191 C37.047,69.191 21.728,84.522 21.728,84.522 C21.440,84.811 21.079,84.954 20.707,85.027 ZM12.579,86.709 C12.353,87.164 12.788,87.630 13.274,87.405 C13.274,87.405 18.599,84.179 18.599,84.179 C18.599,84.179 15.802,81.380 15.802,81.380 C15.802,81.380 12.579,86.709 12.579,86.709 ZM34.958,68.495 C35.342,68.110 35.342,67.485 34.958,67.101 C34.958,67.101 32.869,65.010 32.869,65.010 C32.484,64.625 31.861,64.625 31.476,65.010 C31.476,65.010 29.437,67.051 29.437,67.051 C29.437,67.051 32.869,70.585 32.869,70.585 C32.869,70.585 34.958,68.495 34.958,68.495 ZM27.970,68.519 C27.970,68.519 16.852,79.644 16.852,79.644 C17.222,80.015 19.028,81.822 20.334,83.128 C20.334,83.128 31.476,71.979 31.476,71.979 C31.476,71.979 27.970,68.519 27.970,68.519 ZM23.526,47.059 C10.531,47.059 -0.004,36.524 -0.004,23.529 C-0.004,10.533 10.531,-0.001 23.526,-0.001 C36.522,-0.001 47.056,10.533 47.056,23.529 C47.056,36.524 36.522,47.059 23.526,47.059 ZM23.526,2.352 C11.831,2.352 2.349,11.833 2.349,23.529 C2.349,35.224 11.831,44.706 23.526,44.706 C35.222,44.706 44.703,35.224 44.703,23.529 C44.703,11.833 35.222,2.352 23.526,2.352 ZM33.909,36.472 C33.909,36.472 13.141,36.472 13.141,36.472 C11.691,36.472 10.582,35.328 10.582,33.832 C10.582,33.832 10.582,18.870 10.582,18.870 C10.582,18.870 10.582,17.110 10.582,17.110 C10.582,17.110 10.582,13.238 10.582,13.238 C10.582,11.742 11.691,10.597 13.141,10.597 C13.141,10.597 19.793,10.597 19.793,10.597 C21.242,10.597 22.351,11.742 22.351,13.238 C22.351,13.238 22.351,13.766 22.351,13.766 C22.351,13.766 33.909,13.766 33.909,13.766 C35.358,13.766 36.467,14.910 36.467,16.406 C36.467,16.406 36.467,17.110 36.467,17.110 C36.467,17.110 36.467,18.870 36.467,18.870 C36.467,18.870 36.467,19.926 36.467,19.926 C36.467,19.926 36.467,33.832 36.467,33.832 C36.467,35.328 35.358,36.472 33.909,36.472 ZM34.761,16.406 C34.761,15.878 34.420,15.526 33.909,15.526 C33.909,15.526 22.351,15.526 22.351,15.526 C22.351,15.526 20.646,15.526 20.646,15.526 C20.646,15.526 20.646,13.766 20.646,13.766 C20.646,13.766 20.646,13.238 20.646,13.238 C20.646,12.710 20.304,12.358 19.793,12.358 C19.793,12.358 13.141,12.358 13.141,12.358 C12.629,12.358 12.288,12.710 12.288,13.238 C12.288,13.238 12.288,17.110 12.288,17.110 C12.288,17.110 34.761,17.110 34.761,17.110 C34.761,17.110 34.761,16.406 34.761,16.406 ZM34.761,19.926 C34.761,19.926 34.761,18.870 34.761,18.870 C34.761,18.870 12.288,18.870 12.288,18.870 C12.288,18.870 12.288,33.832 12.288,33.832 C12.288,34.360 12.629,34.712 13.141,34.712 C13.141,34.712 33.909,34.712 33.909,34.712 C34.420,34.712 34.761,34.360 34.761,33.832 C34.761,33.832 34.761,19.926 34.761,19.926 ZM129.411,52.941 C142.407,52.941 152.941,63.476 152.941,76.471 C152.941,89.467 142.407,100.001 129.411,100.001 C116.416,100.001 105.881,89.467 105.881,76.471 C105.881,63.476 116.416,52.941 129.411,52.941 ZM129.411,97.648 C141.107,97.648 150.588,88.167 150.588,76.471 C150.588,64.776 141.107,55.294 129.411,55.294 C117.716,55.294 108.234,64.776 108.234,76.471 C108.234,88.167 117.716,97.648 129.411,97.648 ZM121.261,61.177 C121.261,61.177 134.515,61.177 134.515,61.177 C134.515,61.177 141.185,67.942 141.185,67.942 C141.185,67.942 141.185,86.913 141.185,86.913 C141.185,88.942 139.561,90.589 137.560,90.589 C137.560,90.589 121.261,90.589 121.261,90.589 C119.260,90.589 117.636,88.942 117.636,86.913 C117.636,86.913 117.636,64.853 117.636,64.853 C117.636,62.824 119.260,61.177 121.261,61.177 ZM133.964,63.030 C133.964,65.206 133.964,66.706 133.964,66.706 C133.964,67.706 134.747,68.530 135.762,68.530 C135.762,68.530 139.387,68.530 139.387,68.530 C139.387,68.530 133.964,63.030 133.964,63.030 ZM119.463,86.913 C119.463,87.913 120.246,88.736 121.261,88.736 C121.261,88.736 137.589,88.736 137.589,88.736 C138.575,88.736 139.387,87.913 139.387,86.913 C139.387,86.913 139.387,70.383 139.387,70.383 C137.270,70.383 135.762,70.383 135.762,70.383 C133.761,70.383 132.137,68.736 132.137,66.706 C132.137,66.706 132.079,65.236 132.108,63.030 C132.108,63.030 121.261,63.030 121.261,63.030 C120.275,63.030 119.463,63.824 119.463,64.853 C119.463,64.853 119.463,86.913 119.463,86.913 Z" id="path-1" class="cls-2" fill-rule="evenodd"/>
</svg>
