<svg xmlns="http://www.w3.org/2000/svg" xmlns:xlink="http://www.w3.org/1999/xlink" preserveAspectRatio="xMidYMid" width="133" height="100" viewBox="0 0 133 100">
  <defs>
    <style>

      .cls-2 {
        fill: #18ffff;
      }
    </style>
  </defs>
  <path d="M91.436,100.000 C90.733,100.000 33.249,99.900 33.249,99.900 C14.713,98.879 0.000,84.413 0.000,66.667 C0.000,51.625 10.565,38.917 25.074,34.771 C26.475,15.337 42.605,-0.000 62.342,-0.000 C77.068,-0.000 89.769,8.550 95.870,20.954 C116.572,22.183 132.997,39.354 132.997,60.417 C132.997,82.279 113.243,100.000 91.436,100.000 ZM95.632,24.947 C95.632,24.947 93.302,24.808 93.302,24.808 C93.302,24.808 92.273,22.716 92.273,22.716 C86.594,11.171 75.126,3.999 62.343,3.999 C44.940,3.999 30.326,17.642 29.071,35.058 C29.071,35.058 28.870,37.847 28.870,37.847 C28.870,37.847 26.177,38.616 26.177,38.616 C12.917,42.405 4.007,53.678 4.007,66.667 C4.007,82.121 16.894,94.944 33.366,95.900 C36.145,95.905 90.751,96.001 91.436,96.001 C111.441,96.001 128.990,79.373 128.990,60.417 C128.990,41.638 114.338,26.057 95.632,24.947 ZM92.000,86.500 C80.954,86.500 72.000,77.546 72.000,66.500 C72.000,55.454 80.954,46.500 92.000,46.500 C103.046,46.500 112.000,55.454 112.000,66.500 C112.000,77.546 103.046,86.500 92.000,86.500 ZM92.000,48.500 C82.059,48.500 74.000,56.559 74.000,66.500 C74.000,76.441 82.059,84.500 92.000,84.500 C101.941,84.500 110.000,76.441 110.000,66.500 C110.000,56.559 101.941,48.500 92.000,48.500 ZM98.644,72.483 C96.282,73.801 93.254,73.525 92.224,71.840 C91.194,70.154 92.284,67.732 94.647,66.414 C96.312,65.495 98.190,65.403 99.492,66.016 C99.492,66.016 99.492,59.702 99.492,59.702 C99.492,59.702 90.134,61.173 90.134,61.173 C90.134,61.173 90.134,69.878 90.134,69.939 C90.255,71.472 89.438,73.249 87.590,74.261 C85.228,75.579 82.199,75.303 81.170,73.617 C80.140,71.931 81.230,69.510 83.592,68.192 C85.258,67.273 87.136,67.181 88.438,67.794 C88.438,67.794 88.438,60.499 88.438,60.499 C88.438,60.039 88.802,59.641 89.286,59.641 C89.286,59.641 100.371,57.924 100.371,57.924 C100.855,57.924 101.249,58.292 101.188,58.690 C101.188,58.690 101.188,68.100 101.188,68.161 C101.310,69.694 100.492,71.472 98.644,72.483 ZM87.984,69.602 C87.136,68.897 85.773,68.897 84.259,69.694 C82.714,70.491 82.078,71.870 82.805,72.759 C83.532,73.648 85.379,73.801 86.863,72.943 C88.166,72.177 89.044,70.430 87.984,69.602 ZM99.008,67.855 C98.099,67.211 96.797,67.181 95.283,67.978 C93.768,68.774 93.132,70.154 93.859,71.043 C94.586,71.931 96.434,72.054 97.918,71.196 C99.280,70.430 100.189,68.683 99.008,67.855 ZM61.000,53.000 C49.954,53.000 41.000,44.046 41.000,33.000 C41.000,21.954 49.954,13.000 61.000,13.000 C72.046,13.000 81.000,21.954 81.000,33.000 C81.000,44.046 72.046,53.000 61.000,53.000 ZM61.000,15.000 C51.059,15.000 43.000,23.059 43.000,33.000 C43.000,42.941 51.059,51.000 61.000,51.000 C70.941,51.000 79.000,42.941 79.000,33.000 C79.000,23.059 70.941,15.000 61.000,15.000 ZM56.019,22.987 C56.019,22.987 69.988,32.499 69.988,32.499 C69.988,32.499 56.019,42.012 56.019,42.012 C56.019,42.012 56.019,22.987 56.019,22.987 ZM51.000,66.500 C51.000,77.546 42.046,86.500 31.000,86.500 C19.954,86.500 11.000,77.546 11.000,66.500 C11.000,55.454 19.954,46.500 31.000,46.500 C42.046,46.500 51.000,55.454 51.000,66.500 ZM46.554,75.530 C46.554,75.530 42.172,72.009 42.172,72.009 C42.172,72.009 37.789,75.530 37.789,75.530 C37.789,75.530 42.734,80.131 42.734,80.131 C44.250,78.825 45.541,77.270 46.554,75.530 ZM31.000,84.500 C34.974,84.500 38.636,83.196 41.614,81.015 C41.614,81.015 40.515,81.015 40.515,81.015 C40.515,81.015 23.486,65.170 23.486,65.170 C23.486,65.170 14.412,73.500 14.412,73.500 C17.143,79.964 23.542,84.500 31.000,84.500 ZM31.000,48.500 C21.059,48.500 13.000,56.559 13.000,66.500 C13.000,68.151 13.241,69.743 13.657,71.262 C13.657,71.262 23.495,62.232 23.495,62.232 C23.495,62.232 36.193,74.046 36.193,74.046 C36.193,74.046 42.172,69.244 42.172,69.244 C42.172,69.244 47.556,73.568 47.556,73.568 C48.484,71.398 49.000,69.010 49.000,66.500 C49.000,56.559 40.941,48.500 31.000,48.500 ZM36.334,67.083 C33.804,67.083 31.745,65.048 31.745,62.547 C31.745,60.046 33.804,58.011 36.334,58.011 C38.864,58.011 40.923,60.046 40.923,62.547 C40.923,65.048 38.864,67.083 36.334,67.083 ZM36.334,60.158 C35.001,60.158 33.917,61.229 33.917,62.547 C33.917,63.865 35.001,64.936 36.334,64.936 C37.667,64.936 38.751,63.865 38.751,62.547 C38.751,61.229 37.667,60.158 36.334,60.158 Z" id="path-1" class="cls-2" fill-rule="evenodd"/>
</svg>
