<svg xmlns="http://www.w3.org/2000/svg" xmlns:xlink="http://www.w3.org/1999/xlink" preserveAspectRatio="xMidYMid" width="160" height="100" viewBox="0 0 160 100">
  <defs>
    <style>

      .cls-2 {
        fill: #18ffff;
      }
    </style>
  </defs>
  <path d="M140.000,80.001 C128.941,80.001 119.999,71.059 119.999,60.000 C119.999,48.941 128.941,39.999 140.000,39.999 C151.059,39.999 160.001,48.941 160.001,60.000 C160.001,71.059 150.941,80.001 140.000,80.001 ZM140.000,77.648 C144.317,77.648 148.265,76.105 151.328,73.542 C150.593,72.879 149.148,72.344 147.765,71.883 C145.177,70.941 142.235,69.883 142.235,67.177 C142.235,67.177 142.235,64.118 142.235,64.118 C142.235,64.118 142.824,63.765 142.824,63.765 C142.824,63.765 144.235,62.824 144.235,60.941 C144.235,60.941 144.235,60.118 144.235,60.118 C144.235,60.118 144.941,59.765 144.941,59.765 C145.059,59.765 145.647,59.412 145.647,58.471 C145.647,58.235 145.412,57.882 145.294,57.765 C145.294,57.765 144.824,57.294 144.824,57.294 C144.824,57.294 145.059,56.706 145.059,56.706 C145.059,56.706 145.647,54.823 145.647,52.470 C145.647,50.235 144.353,48.588 143.294,48.588 C143.294,48.588 142.588,48.588 142.588,48.588 C142.588,48.588 142.235,48.000 142.235,48.000 C142.235,47.529 141.412,47.058 140.000,47.058 C136.353,47.058 134.117,49.058 134.117,52.353 C134.117,53.882 134.706,56.470 134.706,56.470 C134.706,56.470 134.823,57.059 134.823,57.059 C134.823,57.059 134.353,57.647 134.353,57.647 C134.235,57.647 134.000,58.000 134.000,58.471 C134.000,59.059 134.706,59.765 135.059,60.000 C135.059,60.000 135.529,60.353 135.529,60.353 C135.529,60.353 135.529,60.941 135.529,60.941 C135.529,62.706 137.059,63.647 137.059,63.765 C137.059,63.765 137.647,64.118 137.647,64.118 C137.647,64.118 137.647,67.177 137.647,67.177 C137.647,70.000 134.588,71.412 131.764,72.589 C130.872,72.913 129.767,73.405 129.083,73.872 C132.084,76.235 135.872,77.648 140.000,77.648 ZM140.000,42.352 C130.235,42.352 122.352,50.235 122.352,60.000 C122.352,64.788 124.250,69.120 127.333,72.296 C128.214,71.562 129.487,70.982 130.823,70.353 C132.823,69.412 135.294,68.353 135.294,67.059 C135.294,67.059 135.294,65.294 135.294,65.294 C134.588,64.706 133.411,63.412 133.176,61.529 C132.588,60.941 131.647,59.882 131.647,58.471 C131.647,57.647 132.000,56.941 132.235,56.470 C132.000,55.529 131.764,53.764 131.764,52.353 C131.764,47.764 134.941,44.705 140.000,44.705 C141.412,44.705 143.176,45.058 144.118,46.117 C146.353,46.588 148.235,49.176 148.235,52.353 C148.235,54.353 147.882,56.000 147.647,56.823 C147.882,57.176 148.118,57.765 148.118,58.471 C148.118,60.000 147.294,61.059 146.588,61.529 C146.353,63.412 145.294,64.588 144.588,65.177 C144.588,65.177 144.588,67.059 144.588,67.059 C144.588,68.118 146.706,68.941 148.588,69.647 C150.210,70.245 151.885,70.909 153.002,71.944 C155.887,68.804 157.647,64.613 157.647,60.000 C157.647,50.235 149.647,42.352 140.000,42.352 ZM110.000,40.001 C98.941,40.001 89.999,31.059 89.999,20.000 C89.999,8.941 98.941,-0.001 110.000,-0.001 C121.059,-0.001 130.001,8.941 130.001,20.000 C130.001,31.059 120.941,40.001 110.000,40.001 ZM123.002,31.944 C125.887,28.804 127.647,24.613 127.647,20.000 C127.647,10.235 119.647,2.352 110.000,2.352 C100.235,2.352 92.352,10.235 92.352,20.000 C92.352,24.788 94.250,29.120 97.333,32.296 C98.214,31.562 99.487,30.982 100.823,30.353 C102.823,29.412 105.294,28.353 105.294,27.059 C105.294,27.059 105.294,25.294 105.294,25.294 C104.588,24.706 103.411,23.412 103.176,21.529 C102.588,20.941 101.647,19.882 101.647,18.471 C101.647,17.647 102.000,16.941 102.235,16.470 C102.000,15.529 101.764,13.764 101.764,12.353 C101.764,7.764 104.941,4.705 110.000,4.705 C111.412,4.705 113.176,5.058 114.118,6.117 C116.353,6.588 118.235,9.176 118.235,12.353 C118.235,14.353 117.882,16.000 117.647,16.823 C117.882,17.176 118.118,17.765 118.118,18.471 C118.118,20.000 117.294,21.059 116.588,21.529 C116.353,23.412 115.294,24.588 114.588,25.177 C114.588,25.177 114.588,27.059 114.588,27.059 C114.588,28.118 116.706,28.941 118.588,29.647 C120.210,30.245 121.885,30.909 123.002,31.944 ZM117.765,31.883 C115.177,30.941 112.235,29.883 112.235,27.177 C112.235,27.177 112.235,24.118 112.235,24.118 C112.235,24.118 112.824,23.765 112.824,23.765 C112.824,23.765 114.235,22.824 114.235,20.941 C114.235,20.941 114.235,20.118 114.235,20.118 C114.235,20.118 114.941,19.765 114.941,19.765 C115.059,19.765 115.647,19.412 115.647,18.471 C115.647,18.235 115.412,17.882 115.294,17.765 C115.294,17.765 114.824,17.294 114.824,17.294 C114.824,17.294 115.059,16.706 115.059,16.706 C115.059,16.706 115.647,14.823 115.647,12.470 C115.647,10.235 114.353,8.588 113.294,8.588 C113.294,8.588 112.588,8.588 112.588,8.588 C112.588,8.588 112.235,8.000 112.235,8.000 C112.235,7.529 111.412,7.058 110.000,7.058 C106.353,7.058 104.117,9.058 104.117,12.353 C104.117,13.882 104.706,16.470 104.706,16.470 C104.706,16.470 104.823,17.059 104.823,17.059 C104.823,17.059 104.353,17.647 104.353,17.647 C104.235,17.647 104.000,18.000 104.000,18.471 C104.000,19.059 104.706,19.765 105.059,20.000 C105.059,20.000 105.529,20.353 105.529,20.353 C105.529,20.353 105.529,20.941 105.529,20.941 C105.529,22.706 107.059,23.647 107.059,23.765 C107.059,23.765 107.647,24.118 107.647,24.118 C107.647,24.118 107.647,27.177 107.647,27.177 C107.647,30.000 104.588,31.412 101.764,32.589 C100.872,32.913 99.767,33.405 99.083,33.872 C102.084,36.235 105.872,37.648 110.000,37.648 C114.317,37.648 118.265,36.105 121.328,33.542 C120.593,32.879 119.148,32.344 117.765,31.883 ZM109.999,70.000 C109.999,86.588 96.411,99.999 80.000,99.999 C63.412,99.999 50.000,86.588 50.000,70.000 C50.000,53.412 63.412,40.001 80.000,40.001 C96.588,40.001 109.999,53.412 109.999,70.000 ZM80.000,96.470 C86.475,96.470 92.397,94.156 96.991,90.312 C95.889,89.318 93.722,88.515 91.647,87.823 C87.764,86.411 83.353,84.823 83.353,80.764 C83.353,80.764 83.353,76.176 83.353,76.176 C83.353,76.176 84.235,75.647 84.235,75.647 C84.235,75.647 86.353,74.235 86.353,71.412 C86.353,71.412 86.353,70.176 86.353,70.176 C86.353,70.176 87.412,69.647 87.412,69.647 C87.588,69.647 88.470,69.118 88.470,67.706 C88.470,67.353 88.117,66.824 87.941,66.647 C87.941,66.647 87.235,65.941 87.235,65.941 C87.235,65.941 87.588,65.059 87.588,65.059 C87.588,65.059 88.470,62.235 88.470,58.706 C88.470,55.353 86.529,52.883 84.941,52.883 C84.941,52.883 83.882,52.883 83.882,52.883 C83.882,52.883 83.353,52.000 83.353,52.000 C83.353,51.294 82.118,50.589 80.000,50.589 C74.529,50.589 71.177,53.589 71.177,58.530 C71.177,60.824 72.059,64.706 72.059,64.706 C72.059,64.706 72.235,65.588 72.235,65.588 C72.235,65.588 71.529,66.471 71.529,66.471 C71.353,66.471 71.000,67.000 71.000,67.706 C71.000,68.588 72.059,69.647 72.588,70.000 C72.588,70.000 73.294,70.529 73.294,70.529 C73.294,70.529 73.294,71.412 73.294,71.412 C73.294,74.059 75.588,75.470 75.588,75.647 C75.588,75.647 76.471,76.176 76.471,76.176 C76.471,76.176 76.471,80.764 76.471,80.764 C76.471,85.000 71.882,87.117 67.647,88.882 C66.309,89.369 64.651,90.106 63.625,90.807 C68.127,94.352 73.809,96.470 80.000,96.470 ZM80.000,43.530 C65.353,43.530 53.530,55.353 53.530,70.000 C53.530,77.181 56.377,83.680 61.001,88.443 C62.321,87.342 64.232,86.472 66.235,85.529 C69.235,84.117 72.941,82.529 72.941,80.588 C72.941,80.588 72.941,77.941 72.941,77.941 C71.882,77.059 70.118,75.117 69.765,72.294 C68.882,71.412 67.471,69.823 67.471,67.706 C67.471,66.471 68.000,65.412 68.353,64.706 C68.000,63.294 67.647,60.647 67.647,58.530 C67.647,51.647 72.412,47.059 80.000,47.059 C82.118,47.059 84.765,47.589 86.176,49.177 C89.529,49.883 92.353,53.765 92.353,58.530 C92.353,61.530 91.823,64.000 91.470,65.235 C91.823,65.765 92.176,66.647 92.176,67.706 C92.176,70.000 90.941,71.588 89.882,72.294 C89.529,75.117 87.941,76.882 86.882,77.765 C86.882,77.765 86.882,80.588 86.882,80.588 C86.882,82.176 90.059,83.411 92.882,84.470 C95.314,85.366 97.827,86.363 99.502,87.915 C103.829,83.205 106.470,76.919 106.470,70.000 C106.470,55.353 94.470,43.530 80.000,43.530 ZM50.000,40.001 C38.941,40.001 29.999,31.059 29.999,20.000 C29.999,8.941 38.941,-0.001 50.000,-0.001 C61.059,-0.001 70.001,8.941 70.001,20.000 C70.001,31.059 60.941,40.001 50.000,40.001 ZM63.002,31.944 C65.887,28.804 67.647,24.613 67.647,20.000 C67.647,10.235 59.647,2.352 50.000,2.352 C40.235,2.352 32.352,10.235 32.352,20.000 C32.352,24.788 34.250,29.120 37.333,32.296 C38.214,31.562 39.487,30.982 40.823,30.353 C42.823,29.412 45.294,28.353 45.294,27.059 C45.294,27.059 45.294,25.294 45.294,25.294 C44.588,24.706 43.411,23.412 43.176,21.529 C42.588,20.941 41.647,19.882 41.647,18.471 C41.647,17.647 42.000,16.941 42.235,16.470 C42.000,15.529 41.764,13.764 41.764,12.353 C41.764,7.764 44.941,4.705 50.000,4.705 C51.412,4.705 53.176,5.058 54.118,6.117 C56.353,6.588 58.235,9.176 58.235,12.353 C58.235,14.353 57.882,16.000 57.647,16.823 C57.882,17.176 58.118,17.765 58.118,18.471 C58.118,20.000 57.294,21.059 56.588,21.529 C56.353,23.412 55.294,24.588 54.588,25.177 C54.588,25.177 54.588,27.059 54.588,27.059 C54.588,28.118 56.706,28.941 58.588,29.647 C60.210,30.245 61.885,30.909 63.002,31.944 ZM57.765,31.883 C55.177,30.941 52.235,29.883 52.235,27.177 C52.235,27.177 52.235,24.118 52.235,24.118 C52.235,24.118 52.824,23.765 52.824,23.765 C52.824,23.765 54.235,22.824 54.235,20.941 C54.235,20.941 54.235,20.118 54.235,20.118 C54.235,20.118 54.941,19.765 54.941,19.765 C55.059,19.765 55.647,19.412 55.647,18.471 C55.647,18.235 55.412,17.882 55.294,17.765 C55.294,17.765 54.824,17.294 54.824,17.294 C54.824,17.294 55.059,16.706 55.059,16.706 C55.059,16.706 55.647,14.823 55.647,12.470 C55.647,10.235 54.353,8.588 53.294,8.588 C53.294,8.588 52.588,8.588 52.588,8.588 C52.588,8.588 52.235,8.000 52.235,8.000 C52.235,7.529 51.412,7.058 50.000,7.058 C46.353,7.058 44.117,9.058 44.117,12.353 C44.117,13.882 44.706,16.470 44.706,16.470 C44.706,16.470 44.823,17.059 44.823,17.059 C44.823,17.059 44.353,17.647 44.353,17.647 C44.235,17.647 44.000,18.000 44.000,18.471 C44.000,19.059 44.706,19.765 45.059,20.000 C45.059,20.000 45.529,20.353 45.529,20.353 C45.529,20.353 45.529,20.941 45.529,20.941 C45.529,22.706 47.059,23.647 47.059,23.765 C47.059,23.765 47.647,24.118 47.647,24.118 C47.647,24.118 47.647,27.177 47.647,27.177 C47.647,30.000 44.588,31.412 41.764,32.589 C40.872,32.913 39.767,33.405 39.083,33.872 C42.084,36.235 45.872,37.648 50.000,37.648 C54.317,37.648 58.265,36.105 61.328,33.542 C60.593,32.879 59.148,32.344 57.765,31.883 ZM40.001,60.000 C40.001,71.059 30.941,80.001 20.000,80.001 C8.941,80.001 -0.001,71.059 -0.001,60.000 C-0.001,48.941 8.941,39.999 20.000,39.999 C31.059,39.999 40.001,48.941 40.001,60.000 ZM20.000,77.648 C24.317,77.648 28.265,76.105 31.328,73.542 C30.593,72.879 29.148,72.344 27.765,71.883 C25.177,70.941 22.235,69.883 22.235,67.177 C22.235,67.177 22.235,64.118 22.235,64.118 C22.235,64.118 22.824,63.765 22.824,63.765 C22.824,63.765 24.235,62.824 24.235,60.941 C24.235,60.941 24.235,60.118 24.235,60.118 C24.235,60.118 24.941,59.765 24.941,59.765 C25.059,59.765 25.647,59.412 25.647,58.471 C25.647,58.235 25.412,57.882 25.294,57.765 C25.294,57.765 24.824,57.294 24.824,57.294 C24.824,57.294 25.059,56.706 25.059,56.706 C25.059,56.706 25.647,54.823 25.647,52.470 C25.647,50.235 24.353,48.588 23.294,48.588 C23.294,48.588 22.588,48.588 22.588,48.588 C22.588,48.588 22.235,48.000 22.235,48.000 C22.235,47.529 21.412,47.058 20.000,47.058 C16.353,47.058 14.117,49.058 14.117,52.353 C14.117,53.882 14.706,56.470 14.706,56.470 C14.706,56.470 14.823,57.059 14.823,57.059 C14.823,57.059 14.353,57.647 14.353,57.647 C14.235,57.647 14.000,58.000 14.000,58.471 C14.000,59.059 14.706,59.765 15.059,60.000 C15.059,60.000 15.529,60.353 15.529,60.353 C15.529,60.353 15.529,60.941 15.529,60.941 C15.529,62.706 17.059,63.647 17.059,63.765 C17.059,63.765 17.647,64.118 17.647,64.118 C17.647,64.118 17.647,67.177 17.647,67.177 C17.647,70.000 14.588,71.412 11.764,72.589 C10.872,72.913 9.767,73.405 9.083,73.872 C12.084,76.235 15.872,77.648 20.000,77.648 ZM20.000,42.352 C10.235,42.352 2.352,50.235 2.352,60.000 C2.352,64.788 4.250,69.120 7.333,72.296 C8.214,71.562 9.487,70.982 10.823,70.353 C12.823,69.412 15.294,68.353 15.294,67.059 C15.294,67.059 15.294,65.294 15.294,65.294 C14.588,64.706 13.411,63.412 13.176,61.529 C12.588,60.941 11.647,59.882 11.647,58.471 C11.647,57.647 12.000,56.941 12.235,56.470 C12.000,55.529 11.764,53.764 11.764,52.353 C11.764,47.764 14.941,44.705 20.000,44.705 C21.412,44.705 23.176,45.058 24.118,46.117 C26.353,46.588 28.235,49.176 28.235,52.353 C28.235,54.353 27.882,56.000 27.647,56.823 C27.882,57.176 28.118,57.765 28.118,58.471 C28.118,60.000 27.294,61.059 26.588,61.529 C26.353,63.412 25.294,64.588 24.588,65.177 C24.588,65.177 24.588,67.059 24.588,67.059 C24.588,68.118 26.706,68.941 28.588,69.647 C30.210,70.245 31.885,70.909 33.002,71.944 C35.887,68.804 37.647,64.613 37.647,60.000 C37.647,50.235 29.647,42.352 20.000,42.352 Z" id="path-1" class="cls-2" fill-rule="evenodd"/>
</svg>
