<svg xmlns="http://www.w3.org/2000/svg" xmlns:xlink="http://www.w3.org/1999/xlink" preserveAspectRatio="xMidYMid" width="100" height="100" viewBox="0 0 100 100">
  <defs>
    <style>

      .cls-2 {
        fill: #18ffff;
      }
    </style>
  </defs>
  <path d="M99.762,45.152 C99.762,45.152 99.762,45.152 99.762,45.152 C99.916,46.748 100.001,48.364 100.001,50.000 C100.001,51.749 99.909,53.477 99.734,55.180 C99.734,55.180 99.734,55.180 99.734,55.180 C99.734,55.180 99.734,55.180 99.734,55.180 C99.337,59.030 98.493,62.745 97.273,66.286 C97.270,66.295 97.267,66.303 97.264,66.312 C92.265,80.800 80.800,92.265 66.312,97.264 C66.303,97.267 66.295,97.270 66.286,97.273 C62.745,98.493 59.030,99.337 55.180,99.734 C55.180,99.734 55.180,99.734 55.180,99.734 C55.180,99.734 55.180,99.734 55.180,99.734 C55.054,99.747 54.927,99.754 54.801,99.766 C54.262,99.816 53.721,99.857 53.177,99.890 C52.125,99.956 51.068,100.000 50.000,100.000 C48.364,100.000 46.748,99.916 45.152,99.762 C45.152,99.762 45.152,99.762 45.152,99.762 C45.152,99.762 45.152,99.762 45.152,99.762 C42.258,99.484 39.441,98.952 36.713,98.202 C36.713,98.202 36.713,98.202 36.713,98.202 C36.713,98.202 36.713,98.202 36.713,98.202 C31.758,96.839 27.114,94.734 22.903,92.011 C22.903,92.011 22.903,92.011 22.903,92.011 C22.903,92.011 22.903,92.011 22.903,92.011 C20.334,90.351 17.928,88.463 15.712,86.374 C15.712,86.374 15.712,86.374 15.712,86.374 C15.712,86.374 15.712,86.374 15.712,86.374 C14.481,85.213 13.311,83.991 12.202,82.712 C12.202,82.712 12.202,82.712 12.202,82.712 C12.202,82.712 12.202,82.712 12.202,82.712 C11.764,82.206 11.335,81.692 10.917,81.169 C10.917,81.169 10.917,81.169 10.917,81.169 C10.917,81.169 10.917,81.169 10.917,81.169 C9.849,79.831 8.850,78.437 7.921,76.993 C7.921,76.993 7.921,76.993 7.921,76.993 C7.921,76.993 7.921,76.993 7.921,76.993 C6.596,74.931 5.419,72.766 4.403,70.511 C4.403,70.511 4.403,70.511 4.403,70.511 C4.403,70.511 4.403,70.511 4.403,70.511 C4.108,69.857 3.827,69.195 3.560,68.526 C3.560,68.526 3.560,68.526 3.560,68.526 C3.560,68.526 3.560,68.526 3.560,68.526 C2.863,66.781 2.260,64.989 1.760,63.154 C1.760,63.154 1.760,63.154 1.760,63.154 C1.760,63.154 1.760,63.154 1.760,63.154 C0.620,58.961 -0.001,54.554 -0.001,50.000 C-0.001,41.259 2.248,33.045 6.190,25.895 C6.190,25.895 6.190,25.895 6.190,25.895 C6.190,25.895 6.190,25.895 6.190,25.895 C10.922,17.314 18.103,10.278 26.789,5.715 C27.062,5.572 27.337,5.432 27.612,5.294 C28.361,4.918 29.119,4.561 29.888,4.222 C29.892,4.221 29.896,4.219 29.900,4.217 C33.504,2.632 37.330,1.465 41.320,0.766 C41.320,0.766 41.320,0.766 41.320,0.766 C41.320,0.766 41.320,0.766 41.320,0.766 C41.859,0.671 42.400,0.582 42.945,0.505 C43.501,0.424 44.060,0.352 44.623,0.291 C46.390,0.102 48.183,-0.000 50.000,-0.000 C50.682,-0.000 51.359,0.024 52.035,0.051 C52.035,0.051 52.035,0.051 52.035,0.051 C52.035,0.051 52.035,0.051 52.035,0.051 C52.424,0.067 52.811,0.088 53.198,0.112 C53.697,0.143 54.194,0.179 54.689,0.225 C54.689,0.225 54.689,0.225 54.689,0.225 C57.590,0.495 60.417,1.016 63.154,1.760 C63.154,1.760 63.154,1.760 63.154,1.760 C63.154,1.760 63.154,1.760 63.154,1.760 C67.440,2.927 71.495,4.648 75.242,6.844 C75.242,6.844 75.242,6.844 75.242,6.844 C75.242,6.844 75.242,6.844 75.242,6.844 C75.834,7.191 76.417,7.551 76.993,7.921 C76.993,7.921 76.993,7.921 76.993,7.921 C76.993,7.921 76.993,7.921 76.993,7.921 C80.432,10.132 83.581,12.750 86.374,15.712 C86.374,15.712 86.374,15.712 86.374,15.712 C86.374,15.712 86.374,15.712 86.374,15.712 C86.832,16.198 87.279,16.693 87.718,17.196 C87.718,17.196 87.718,17.196 87.718,17.196 C87.718,17.196 87.718,17.196 87.718,17.196 C88.835,18.480 89.888,19.821 90.871,21.214 C90.871,21.214 90.871,21.214 90.871,21.214 C90.871,21.214 90.871,21.214 90.871,21.214 C95.273,27.453 98.289,34.738 99.455,42.630 C99.455,42.630 99.455,42.630 99.455,42.630 C99.455,42.630 99.455,42.630 99.455,42.630 C99.579,43.464 99.681,44.305 99.762,45.152 C99.762,45.152 99.762,45.152 99.762,45.152 ZM84.405,80.510 C84.405,80.510 80.510,84.405 80.510,84.405 C81.884,83.185 83.185,81.884 84.405,80.510 ZM71.350,90.735 C71.350,90.735 90.735,71.350 90.735,71.350 C92.588,67.822 93.994,64.025 94.883,60.031 C94.883,60.031 60.031,94.883 60.031,94.883 C64.025,93.994 67.822,92.588 71.350,90.735 ZM50.000,95.993 C52.231,95.993 54.421,95.826 56.567,95.519 C56.567,95.519 95.519,56.567 95.519,56.567 C95.826,54.421 95.993,52.231 95.993,50.000 C95.993,49.647 95.974,49.299 95.966,48.948 C95.966,48.948 72.719,72.195 72.719,72.195 C72.719,72.195 72.719,73.637 72.719,73.637 C72.719,77.243 69.981,80.001 66.399,80.001 C66.399,80.001 64.913,80.001 64.913,80.001 C64.913,80.001 48.948,95.966 48.948,95.966 C49.299,95.974 49.647,95.993 50.000,95.993 ZM72.719,52.195 C72.719,52.195 72.719,59.366 72.719,59.366 C72.719,59.366 94.332,37.754 94.332,37.754 C93.828,35.926 93.219,34.141 92.503,32.411 C92.503,32.411 72.719,52.195 72.719,52.195 ZM91.634,30.451 C90.881,28.849 90.038,27.298 89.111,25.803 C89.111,25.803 71.068,43.846 71.068,43.846 C72.095,44.969 72.719,46.475 72.719,48.182 C72.719,48.182 72.719,49.366 72.719,49.366 C72.719,49.366 91.634,30.451 91.634,30.451 ZM30.585,64.329 C30.585,64.329 30.585,71.501 30.585,71.501 C30.585,71.501 45.734,56.352 45.734,56.352 C45.477,55.804 45.332,55.192 45.332,54.546 C45.332,52.202 47.218,50.303 49.545,50.303 C50.197,50.303 50.812,50.456 51.363,50.723 C51.363,50.723 56.025,46.061 56.025,46.061 C56.025,46.061 48.853,46.061 48.853,46.061 C48.853,46.061 30.585,64.329 30.585,64.329 ZM46.025,46.061 C46.025,46.061 38.854,46.061 38.854,46.061 C38.854,46.061 30.585,54.329 30.585,54.329 C30.585,54.329 30.585,61.501 30.585,61.501 C30.585,61.501 46.025,46.061 46.025,46.061 ZM47.003,57.911 C47.003,57.911 30.666,74.248 30.666,74.248 C30.895,75.171 31.645,75.758 32.691,75.758 C32.691,75.758 36.327,75.758 36.327,75.758 C36.327,75.758 46.697,65.388 46.697,65.388 C46.697,65.388 47.850,58.424 47.850,58.424 C47.545,58.289 47.265,58.111 47.003,57.911 ZM27.534,77.381 C27.534,77.381 20.037,84.878 20.037,84.878 C21.328,85.988 22.677,87.034 24.088,87.998 C24.088,87.998 32.113,79.973 32.113,79.973 C30.191,79.810 28.561,78.838 27.534,77.381 ZM30.585,51.501 C30.585,51.501 36.025,46.061 36.025,46.061 C36.025,46.061 32.691,46.061 32.691,46.061 C31.427,46.061 30.585,46.909 30.585,48.182 C30.585,48.182 30.585,51.501 30.585,51.501 ZM34.798,37.287 C34.798,37.287 51.366,20.719 51.366,20.719 C50.770,20.647 50.163,20.605 49.545,20.605 C47.016,20.605 44.648,21.230 42.580,22.334 C42.580,22.334 36.558,28.356 36.558,28.356 C35.434,30.459 34.798,32.874 34.798,35.454 C34.798,35.454 34.798,37.287 34.798,37.287 ZM34.798,40.116 C34.798,40.116 34.798,41.818 34.798,41.818 C34.798,41.818 40.268,41.818 40.268,41.818 C40.268,41.818 58.484,23.601 58.484,23.601 C57.076,22.528 55.465,21.707 53.716,21.199 C53.716,21.199 34.798,40.116 34.798,40.116 ZM43.096,41.818 C43.096,41.818 50.268,41.818 50.268,41.818 C50.268,41.818 62.927,29.158 62.927,29.158 C62.199,27.571 61.203,26.138 59.993,24.921 C59.993,24.921 43.096,41.818 43.096,41.818 ZM53.096,41.818 C53.096,41.818 60.268,41.818 60.268,41.818 C60.268,41.818 64.293,37.793 64.293,37.793 C64.293,37.793 64.293,35.454 64.293,35.454 C64.293,33.979 64.081,32.560 63.694,31.220 C63.694,31.220 53.096,41.818 53.096,41.818 ZM63.096,41.818 C63.096,41.818 64.293,41.818 64.293,41.818 C64.293,41.818 64.293,40.622 64.293,40.622 C64.293,40.622 63.096,41.818 63.096,41.818 ZM58.854,46.061 C58.854,46.061 52.912,52.002 52.912,52.002 C53.441,52.711 53.759,53.590 53.759,54.546 C53.759,56.280 52.722,57.767 51.241,58.424 C51.241,58.424 51.584,60.501 51.584,60.501 C51.584,60.501 66.025,46.061 66.025,46.061 C66.025,46.061 58.854,46.061 58.854,46.061 ZM51.986,62.928 C51.986,62.928 52.705,67.273 52.705,67.273 C52.705,67.273 47.641,67.273 47.641,67.273 C47.641,67.273 39.156,75.758 39.156,75.758 C39.156,75.758 46.327,75.758 46.327,75.758 C46.327,75.758 68.506,53.580 68.506,53.580 C68.506,53.580 68.506,48.182 68.506,48.182 C68.506,47.644 68.348,47.189 68.079,46.835 C68.079,46.835 51.986,62.928 51.986,62.928 ZM52.085,80.001 C52.085,80.001 44.913,80.001 44.913,80.001 C44.913,80.001 32.411,92.503 32.411,92.503 C34.141,93.219 35.926,93.828 37.754,94.332 C37.754,94.332 52.085,80.001 52.085,80.001 ZM49.156,75.758 C49.156,75.758 56.327,75.758 56.327,75.758 C56.327,75.758 68.506,63.580 68.506,63.580 C68.506,63.580 68.506,56.408 68.506,56.408 C68.506,56.408 49.156,75.758 49.156,75.758 ZM59.156,75.758 C59.156,75.758 66.327,75.758 66.327,75.758 C66.327,75.758 68.506,73.580 68.506,73.580 C68.506,73.580 68.506,66.408 68.506,66.408 C68.506,66.408 59.156,75.758 59.156,75.758 ZM46.257,95.829 C46.257,95.829 62.085,80.001 62.085,80.001 C62.085,80.001 54.913,80.001 54.913,80.001 C54.913,80.001 40.020,94.895 40.020,94.895 C42.052,95.344 44.134,95.657 46.257,95.829 ZM30.451,91.634 C30.451,91.634 42.085,80.001 42.085,80.001 C42.085,80.001 34.913,80.001 34.913,80.001 C34.913,80.001 25.803,89.111 25.803,89.111 C27.298,90.038 28.849,90.881 30.451,91.634 ZM18.546,83.540 C18.546,83.540 26.623,75.463 26.623,75.463 C26.461,74.887 26.371,74.276 26.371,73.637 C26.371,73.637 26.371,68.543 26.371,68.543 C26.371,68.543 15.043,79.871 15.043,79.871 C16.143,81.158 17.312,82.382 18.546,83.540 ZM13.770,78.315 C13.770,78.315 26.371,65.714 26.371,65.714 C26.371,65.714 26.371,58.543 26.371,58.543 C26.371,58.543 10.822,74.093 10.822,74.093 C11.725,75.558 12.713,76.965 13.770,78.315 ZM9.779,72.307 C9.779,72.307 26.371,55.714 26.371,55.714 C26.371,55.714 26.371,48.543 26.371,48.543 C26.371,48.543 7.449,67.465 7.449,67.465 C8.133,69.131 8.911,70.746 9.779,72.307 ZM6.665,65.421 C6.665,65.421 27.358,44.728 27.358,44.728 C27.848,43.946 28.502,43.294 29.281,42.804 C29.281,42.804 30.585,41.501 30.585,41.501 C30.585,41.501 30.585,35.454 30.585,35.454 C30.585,35.063 30.600,34.677 30.622,34.292 C30.622,34.292 5.073,59.841 5.073,59.841 C5.489,61.748 6.020,63.611 6.665,65.421 ZM6.234,35.851 C6.234,35.851 35.851,6.234 35.851,6.234 C21.833,10.763 10.763,21.833 6.234,35.851 ZM39.745,5.169 C39.745,5.169 5.169,39.745 5.169,39.745 C4.558,42.426 4.176,45.193 4.057,48.029 C4.057,48.029 48.029,4.057 48.029,4.057 C45.193,4.176 42.426,4.558 39.745,5.169 ZM4.029,50.885 C4.072,53.121 4.269,55.319 4.619,57.466 C4.619,57.466 31.106,30.980 31.106,30.980 C32.759,23.952 38.229,18.478 45.227,16.859 C45.227,16.859 57.466,4.619 57.466,4.619 C55.319,4.269 53.121,4.072 50.885,4.029 C50.885,4.029 4.029,50.885 4.029,50.885 ZM48.523,16.391 C48.862,16.373 49.202,16.363 49.545,16.363 C51.425,16.363 53.235,16.637 54.944,17.141 C54.944,17.141 65.421,6.665 65.421,6.665 C63.611,6.020 61.748,5.489 59.841,5.073 C59.841,5.073 48.523,16.391 48.523,16.391 ZM67.465,7.449 C67.465,7.449 57.026,17.888 57.026,17.888 C58.646,18.582 60.146,19.496 61.493,20.593 C61.493,20.593 72.307,9.779 72.307,9.779 C70.746,8.911 69.131,8.133 67.465,7.449 ZM62.979,21.935 C64.181,23.146 65.216,24.523 66.059,26.026 C66.059,26.026 78.315,13.770 78.315,13.770 C76.965,12.713 75.558,11.725 74.093,10.822 C74.093,10.822 62.979,21.935 62.979,21.935 ZM79.871,15.043 C79.871,15.043 66.992,27.922 66.992,27.922 C67.746,29.709 68.238,31.639 68.422,33.664 C68.422,33.664 83.540,18.546 83.540,18.546 C82.382,17.312 81.158,16.143 79.871,15.043 ZM84.878,20.037 C84.878,20.037 68.506,36.408 68.506,36.408 C68.506,36.408 68.506,42.165 68.506,42.165 C68.849,42.281 69.174,42.431 69.485,42.601 C69.485,42.601 87.998,24.088 87.998,24.088 C87.034,22.677 85.988,21.328 84.878,20.037 ZM94.895,40.020 C94.895,40.020 72.719,62.195 72.719,62.195 C72.719,62.195 72.719,69.366 72.719,69.366 C72.719,69.366 95.829,46.257 95.829,46.257 C95.657,44.134 95.344,42.052 94.895,40.020 Z" id="path-1" class="cls-2" fill-rule="evenodd"/>
</svg>
