<?xml version="1.0" encoding="utf-8"?>
<svg xmlns="http://www.w3.org/2000/svg"
	xmlns:xlink="http://www.w3.org/1999/xlink"
	width="720px" height="108px">
<path fill="rgb(255,255,255)" fill-rule="evenodd" d="M 719.9 53.7C 719.83 54.76 719.73 55.76 719.6 56.69 719.6 56.69 646.93 56.69 646.93 56.69 647.33 69.34 650.46 79.05 656.34 85.84 662.21 92.63 671.55 96.02 684.36 96.02 691.43 96.02 697.04 95.36 701.18 94.02 705.31 92.7 708.32 91.56 710.19 90.63 710.19 90.63 712.59 101.81 712.59 101.81 710.72 102.88 707.21 104.14 702.08 105.6 696.94 107.07 690.9 107.8 683.96 107.8 674.88 107.8 667.14 106.47 660.74 103.81 654.33 101.15 649.06 97.42 644.92 92.63 640.79 87.84 637.78 82.15 635.92 75.56 634.04 68.97 633.11 61.75 633.11 53.9 633.11 44.85 634.41 36.96 637.02 30.24 639.62 23.52 643.02 17.9 647.23 13.37 651.43 8.85 656.23 5.48 661.64 3.29 667.05 1.09 672.62-0.01 678.36-0.01 691.03-0.01 701.14 4.12 708.68 12.37 716.22 20.63 720 33.33 720 50.5 720 51.57 719.96 52.63 719.9 53.7ZM 698.98 20.56C 694.17 14.57 687.37 11.57 678.56 11.57 673.88 11.57 669.71 12.51 666.04 14.37 662.37 16.23 659.17 18.73 656.44 21.85 653.7 24.98 651.56 28.61 650.03 32.73 648.49 36.86 647.59 41.19 647.33 45.71 647.33 45.71 706.58 45.71 706.58 45.71 706.31 34.93 703.78 26.54 698.98 20.56ZM 574.36 108C 565.28 108 558.34 107.23 553.54 105.7 548.73 104.17 545.53 103.01 543.93 102.21 543.93 102.21 547.33 90.43 547.33 90.43 547.73 90.7 548.6 91.13 549.93 91.73 551.27 92.33 553.07 93 555.34 93.72 557.61 94.46 560.31 95.09 563.45 95.62 566.58 96.15 570.22 96.42 574.36 96.42 581.83 96.42 588 95.19 592.88 92.73 597.75 90.27 600.18 86.11 600.18 80.25 600.18 77.45 599.75 75.06 598.88 73.06 598.01 71.07 596.58 69.27 594.58 67.67 592.58 66.07 589.94 64.55 586.67 63.08 583.4 61.62 579.36 59.89 574.56 57.89 570.69 56.29 567.02 54.66 563.55 53 560.08 51.34 557.01 49.4 554.34 47.21 551.67 45.01 549.53 42.39 547.93 39.32 546.33 36.26 545.53 32.53 545.53 28.14 545.53 19.76 548.7 12.97 555.04 7.78 561.38 2.59 570.09-0.01 581.16-0.01 588.24-0.01 594.08 0.59 598.68 1.79 603.28 2.99 606.52 4.05 608.39 4.98 608.39 4.98 605.39 16.56 605.39 16.56 603.79 15.77 601.08 14.7 597.28 13.37 593.48 12.04 587.9 11.37 580.56 11.37 577.63 11.37 574.86 11.67 572.26 12.27 569.65 12.87 567.35 13.81 565.35 15.07 563.35 16.34 561.75 17.94 560.54 19.88 559.34 21.81 558.74 24.17 558.74 26.98 558.74 29.78 559.27 32.18 560.35 34.18 561.41 36.18 562.98 37.95 565.05 39.48 567.12 41.02 569.65 42.45 572.66 43.77 575.66 45.09 579.09 46.55 582.97 48.14 586.97 49.73 590.8 51.35 594.48 53.01 598.15 54.67 601.38 56.66 604.19 58.99 606.99 61.32 609.26 64.11 610.99 67.37 612.73 70.64 613.6 74.73 613.6 79.65 613.6 88.97 610.09 96.02 603.09 100.81 596.08 105.6 586.5 108 574.36 108ZM 521.39 12.87C 518.12 12.27 513.81 11.97 508.48 11.97 502.87 11.97 498.37 12.37 494.96 13.17 491.56 13.97 489.32 14.64 488.26 15.17 488.26 15.17 488.26 105.6 488.26 105.6 488.26 105.6 475.24 105.6 475.24 105.6 475.24 105.6 475.24 7.18 475.24 7.18 478.58 5.72 483.18 4.22 489.06 2.69 494.93 1.16 502.07 0.39 510.48 0.39 514.75 0.39 518.79 0.73 522.59 1.39 526.39 2.06 529.03 2.72 530.5 3.39 530.5 3.39 527.89 14.57 527.89 14.57 526.82 14.04 524.66 13.47 521.39 12.87ZM 447.98 56.69C 447.98 56.69 375.31 56.69 375.31 56.69 375.71 69.34 378.85 79.05 384.72 85.84 390.59 92.63 399.94 96.02 412.75 96.02 419.82 96.02 425.43 95.36 429.56 94.02 433.7 92.7 436.7 91.56 438.57 90.63 438.57 90.63 440.98 101.81 440.98 101.81 439.1 102.88 435.6 104.14 430.47 105.6 425.33 107.07 419.28 107.8 412.35 107.8 403.27 107.8 395.53 106.47 389.12 103.81 382.72 101.15 377.45 97.42 373.31 92.63 369.17 87.84 366.17 82.15 364.3 75.56 362.43 68.97 361.5 61.75 361.5 53.9 361.5 44.85 362.8 36.96 365.4 30.24 368 23.52 371.41 17.9 375.61 13.37 379.82 8.85 384.62 5.48 390.03 3.29 395.43 1.09 401-0.01 406.74-0.01 419.42-0.01 429.53 4.12 437.07 12.37 444.61 20.63 448.38 33.33 448.38 50.5 448.38 51.57 448.35 52.63 448.28 53.7 448.21 54.76 448.11 55.76 447.98 56.69ZM 427.36 20.56C 422.56 14.57 415.75 11.57 406.94 11.57 402.27 11.57 398.1 12.51 394.43 14.37 390.76 16.23 387.55 18.73 384.82 21.85 382.08 24.98 379.95 28.61 378.42 32.73 376.88 36.86 375.98 41.19 375.71 45.71 375.71 45.71 434.97 45.71 434.97 45.71 434.7 34.93 432.17 26.54 427.36 20.56ZM 331.18 57.29C 327.89 66.07 324.47 74.53 320.91 82.65 317.35 90.77 313.89 98.42 310.53 105.6 310.53 105.6 298.4 105.6 298.4 105.6 294.91 98.42 291.41 90.77 287.92 82.65 284.43 74.53 281.04 66.07 277.75 57.29 274.46 48.51 271.34 39.52 268.38 30.34 265.42 21.16 262.74 11.84 260.32 2.39 260.32 2.39 274.14 2.39 274.14 2.39 275.74 9.44 277.72 17 280.06 25.05 282.4 33.1 284.94 41.09 287.69 49 290.43 56.93 293.28 64.58 296.23 71.96 299.18 79.35 302.05 85.91 304.86 91.63 307.67 85.91 310.55 79.35 313.5 71.96 316.44 64.58 319.29 56.93 322.04 49 324.78 41.09 327.32 33.1 329.66 25.05 332.01 17 333.98 9.44 335.59 2.39 335.59 2.39 348.61 2.39 348.61 2.39 346.19 11.84 343.5 21.16 340.55 30.34 337.59 39.52 334.47 48.51 331.18 57.29ZM 225.71 2.39C 225.71 2.39 238.72 2.39 238.72 2.39 238.72 2.39 238.72 105.6 238.72 105.6 238.72 105.6 225.71 105.6 225.71 105.6 225.71 105.6 225.71 2.39 225.71 2.39ZM 181.09 52.1C 181.09 44.78 180.59 38.59 179.59 33.53 178.59 28.48 176.92 24.35 174.58 21.16 172.25 17.96 169.18 15.67 165.38 14.27 161.57 12.87 156.8 12.17 151.06 12.17 144.92 12.17 139.62 12.51 135.15 13.17 130.67 13.84 127.77 14.44 126.44 14.97 126.44 14.97 126.44 105.6 126.44 105.6 126.44 105.6 113.43 105.6 113.43 105.6 113.43 105.6 113.43 5.98 113.43 5.98 117.29 4.92 122.5 3.72 129.04 2.39 135.58 1.06 143.58 0.39 153.06 0.39 160.94 0.39 167.51 1.52 172.78 3.79 178.05 6.05 182.26 9.28 185.39 13.47 188.53 17.66 190.76 22.69 192.1 28.54 193.43 34.4 194.1 40.85 194.1 47.91 194.1 47.91 194.1 105.6 194.1 105.6 194.1 105.6 181.09 105.6 181.09 105.6 181.09 105.6 181.09 52.1 181.09 52.1ZM 41.04 107.6C 33.3 107.6 26.82 106.47 21.62 104.21 16.42 101.94 12.21 98.75 9.01 94.62 5.8 90.5 3.5 85.51 2.1 79.65 0.7 73.8 0 67.34 0 60.28 0 60.28 0 2.39 0 2.39 0 2.39 13.01 2.39 13.01 2.39 13.01 2.39 13.01 56.09 13.01 56.09 13.01 63.41 13.54 69.6 14.61 74.66 15.68 79.72 17.42 83.81 19.82 86.94 22.22 90.07 25.32 92.33 29.13 93.72 32.93 95.12 37.57 95.82 43.04 95.82 49.18 95.82 54.52 95.49 59.06 94.82 63.59 94.16 66.46 93.56 67.66 93.03 67.66 93.03 67.66 2.39 67.66 2.39 67.66 2.39 80.68 2.39 80.68 2.39 80.68 2.39 80.68 102.01 80.68 102.01 76.8 103.08 71.6 104.27 65.06 105.6 58.52 106.93 50.51 107.6 41.04 107.6Z"/>
</svg>