<?xml version="1.0" encoding="utf-8"?>
<svg xmlns="http://www.w3.org/2000/svg"
	xmlns:xlink="http://www.w3.org/1999/xlink"
	width="114px" height="112px">
<path fill="rgb(23,255,255)" fill-rule="evenodd" d="M 56.62 112C 25.7 112 0.63 86.93 0.63 56 0.63 25.07 25.7 0 56.62 0 87.55 0 112.62 25.07 112.62 56 112.62 86.93 87.55 112 56.62 112ZM 56.62 4.49C 28.18 4.49 5.11 27.55 5.11 56 5.11 84.45 28.18 107.51 56.62 107.51 85.07 107.51 108.14 84.45 108.14 56 108.14 27.55 85.07 4.49 56.62 4.49ZM 75.49 89.6C 75.49 89.6 37.74 89.6 37.74 89.6 33.72 89.6 30.66 86.51 30.66 82.47 30.66 82.47 30.66 53.96 30.66 53.96 30.66 50.77 32.58 48.17 35.38 47.23 35.38 47.23 35.38 39.71 35.38 39.71 35.38 27.83 44.81 18.33 56.61 18.33 68.41 18.33 77.85 27.83 77.85 39.71 77.85 39.71 77.85 47.23 77.85 47.23 80.64 48.17 82.57 50.77 82.57 53.96 82.57 53.96 82.57 82.47 82.57 82.47 82.57 86.51 79.5 89.6 75.49 89.6ZM 73.13 39.71C 73.13 30.44 65.81 23.08 56.61 23.08 47.41 23.08 40.1 30.44 40.1 39.71 40.1 39.71 40.1 46.84 40.1 46.84 40.1 46.84 73.13 46.84 73.13 46.84 73.13 46.84 73.13 39.71 73.13 39.71ZM 77.85 53.96C 77.85 52.54 76.9 51.59 75.49 51.59 75.49 51.59 37.74 51.59 37.74 51.59 36.32 51.59 35.38 52.54 35.38 53.96 35.38 53.96 35.38 82.47 35.38 82.47 35.38 83.9 36.32 84.85 37.74 84.85 37.74 84.85 75.49 84.85 75.49 84.85 76.9 84.85 77.85 83.9 77.85 82.47 77.85 82.47 77.85 53.96 77.85 53.96ZM 58.51 65.43C 58.51 65.43 60.15 75.35 60.15 75.35 60.15 75.35 53.07 75.35 53.07 75.35 53.07 75.35 54.71 65.43 54.71 65.43 53.05 64.7 51.89 63.03 51.89 61.09 51.89 58.47 54.01 56.34 56.61 56.34 59.22 56.34 61.33 58.47 61.33 61.09 61.33 63.03 60.17 64.7 58.51 65.43Z"/>
</svg>