<?xml version="1.0" encoding="utf-8"?>
<svg xmlns="http://www.w3.org/2000/svg"
	xmlns:xlink="http://www.w3.org/1999/xlink"
	width="114px" height="112px">
<path fill="rgb(23,255,255)" fill-rule="evenodd" d="M 56.62 112C 25.7 112 0.63 86.93 0.63 56 0.63 25.07 25.7 0 56.62 0 87.55 0 112.62 25.07 112.62 56 112.62 86.93 87.55 112 56.62 112ZM 56.62 4.49C 28.18 4.49 5.11 27.55 5.11 56 5.11 84.45 28.18 107.51 56.62 107.51 85.07 107.51 108.14 84.45 108.14 56 108.14 27.55 85.07 4.49 56.62 4.49ZM 70.62 82.13C 70.23 82.13 37.96 82.07 37.96 82.07 27.56 81.5 19.3 73.4 19.3 63.47 19.3 55.04 25.23 47.93 33.37 45.61 34.16 34.73 43.21 26.14 54.29 26.14 62.56 26.14 69.69 30.92 73.11 37.87 84.73 38.56 93.95 48.17 93.95 59.97 93.95 72.21 82.86 82.13 70.62 82.13ZM 72.85 42.34C 72.85 42.34 70.24 42.19 70.24 42.19 70.24 42.19 69.08 39.85 69.08 39.85 66.27 34.15 60.61 30.62 54.29 30.62 45.69 30.62 38.47 37.34 37.85 45.93 37.85 45.93 37.63 49.05 37.63 49.05 37.63 49.05 34.61 49.91 34.61 49.91 28.14 51.76 23.79 57.2 23.79 63.47 23.79 70.91 30.06 77.1 38.1 77.59 40.29 77.6 70.23 77.65 70.62 77.65 80.66 77.65 89.46 69.39 89.46 59.97 89.46 50.64 82.16 42.89 72.85 42.34Z"/>
</svg>