<?xml version="1.0" encoding="utf-8"?>
<svg xmlns="http://www.w3.org/2000/svg"
	xmlns:xlink="http://www.w3.org/1999/xlink"
	width="114px" height="114px">
<path fill="rgb(23,255,255)" fill-rule="evenodd" d="M 56.63 113.19C 25.71 113.19 0.65 88.13 0.65 57.22 0.65 26.31 25.71 1.25 56.63 1.25 87.54 1.25 112.6 26.31 112.6 57.22 112.6 88.13 87.54 113.19 56.63 113.19ZM 56.19 6.64C 27.85 6.64 4.88 29.61 4.88 57.95 4.88 86.28 27.85 109.25 56.19 109.25 84.52 109.25 107.49 86.28 107.49 57.95 107.49 29.61 84.52 6.64 56.19 6.64ZM 81.36 87.11C 81.36 87.11 31.87 87.11 31.87 87.11 28.41 87.11 25.77 84.47 25.77 81.01 25.77 81.01 25.77 46.48 25.77 46.48 25.77 46.48 25.77 42.41 25.77 42.41 25.77 42.41 25.77 33.47 25.77 33.47 25.77 30.02 28.41 27.38 31.87 27.38 31.87 27.38 47.72 27.38 47.72 27.38 51.18 27.38 53.82 30.02 53.82 33.47 53.82 33.47 53.82 34.69 53.82 34.69 53.82 34.69 81.36 34.69 81.36 34.69 84.82 34.69 87.46 37.33 87.46 40.79 87.46 40.79 87.46 42.41 87.46 42.41 87.46 42.41 87.46 46.48 87.46 46.48 87.46 46.48 87.46 48.91 87.46 48.91 87.46 48.91 87.46 81.01 87.46 81.01 87.46 84.47 84.82 87.11 81.36 87.11ZM 83.39 40.79C 83.39 39.57 82.58 38.76 81.36 38.76 81.36 38.76 53.82 38.76 53.82 38.76 53.82 38.76 49.75 38.76 49.75 38.76 49.75 38.76 49.75 34.69 49.75 34.69 49.75 34.69 49.75 33.47 49.75 33.47 49.75 32.26 48.94 31.44 47.72 31.44 47.72 31.44 31.87 31.44 31.87 31.44 30.65 31.44 29.84 32.26 29.84 33.47 29.84 33.47 29.84 42.41 29.84 42.41 29.84 42.41 83.39 42.41 83.39 42.41 83.39 42.41 83.39 40.79 83.39 40.79ZM 83.39 48.91C 83.39 48.91 83.39 46.48 83.39 46.48 83.39 46.48 29.84 46.48 29.84 46.48 29.84 46.48 29.84 81.01 29.84 81.01 29.84 82.23 30.65 83.04 31.87 83.04 31.87 83.04 81.36 83.04 81.36 83.04 82.58 83.04 83.39 82.23 83.39 81.01 83.39 81.01 83.39 48.91 83.39 48.91Z"/>
</svg>