<?xml version="1.0" encoding="utf-8"?>
<svg xmlns="http://www.w3.org/2000/svg"
	xmlns:xlink="http://www.w3.org/1999/xlink"
	width="114px" height="112px">
<path fill="rgb(23,255,255)" fill-rule="evenodd" d="M 56.62 111.99C 25.66 111.99 0.63 86.96 0.63 56 0.63 25.04 25.66 0.01 56.62 0.01 87.59 0.01 112.62 25.04 112.62 56 112.62 86.96 87.26 111.99 56.62 111.99ZM 86.61 97.64C 86.61 97.64 85.57 98.02 85.57 98.02 84.69 95.66 79.99 93.89 75.58 92.42 69.11 90.06 61.77 87.4 61.77 80.62 61.77 80.62 61.77 72.94 61.77 72.94 61.77 72.94 63.24 72.06 63.24 72.06 63.24 72.06 66.76 69.7 66.76 64.98 66.76 64.98 66.76 62.91 66.76 62.91 66.76 62.91 68.53 62.03 68.53 62.03 68.82 62.03 70.29 61.14 70.29 58.78 70.29 58.19 69.7 57.31 69.41 57.01 69.41 57.01 68.23 55.83 68.23 55.83 68.23 55.83 68.82 54.36 68.82 54.36 68.82 54.36 70.29 49.64 70.29 43.74 70.29 38.13 67.06 34 64.41 34 64.41 34 62.65 34 62.65 34 62.65 34 61.77 32.52 61.77 32.52 61.77 31.34 59.71 30.16 56.18 30.16 47.07 30.16 41.49 35.18 41.49 43.44 41.49 47.28 42.96 53.77 42.96 53.77 42.96 53.77 43.25 55.24 43.25 55.24 43.25 55.24 42.08 56.72 42.08 56.72 41.78 56.72 41.19 57.6 41.19 58.78 41.19 60.26 42.96 62.03 43.84 62.62 43.84 62.62 45.01 63.5 45.01 63.5 45.01 63.5 45.01 64.98 45.01 64.98 45.01 69.4 48.84 71.76 48.84 72.06 48.84 72.06 50.3 72.94 50.3 72.94 50.3 72.94 50.3 80.62 50.3 80.62 50.3 87.7 42.66 91.24 35.61 94.19 32.71 95.25 28.89 97.01 27.7 98.43 35.93 104.05 45.88 107.33 56.62 107.33 67.84 107.33 78.18 103.72 86.61 97.64ZM 56.62 4.67C 28.22 4.67 5.29 27.6 5.29 56 5.29 71.58 12.21 85.48 23.13 94.88 25.19 92.31 29.11 90.54 33.26 88.58 38.26 86.22 44.43 83.57 44.43 80.32 44.43 80.32 44.43 75.9 44.43 75.9 42.66 74.42 39.73 71.17 39.14 66.45 37.67 64.98 35.32 62.32 35.32 58.78 35.32 56.72 36.2 54.95 36.79 53.77 36.2 51.41 35.61 46.98 35.61 43.44 35.61 31.93 43.55 24.26 56.18 24.26 59.71 24.26 64.12 25.15 66.47 27.8 72.05 28.98 76.75 35.48 76.75 43.44 76.75 48.46 75.87 52.59 75.29 54.65 75.87 55.54 76.46 57.01 76.46 58.78 76.46 62.62 74.4 65.27 72.64 66.45 72.05 71.17 69.41 74.12 67.64 75.6 67.64 75.6 67.64 80.32 67.64 80.32 67.64 82.98 72.93 85.04 77.64 86.81 82.66 88.67 87.9 90.79 90.4 94.63 101.15 85.23 107.96 71.44 107.96 56 107.96 27.6 84.69 4.67 56.62 4.67Z"/>
</svg>