<?xml version="1.0" encoding="utf-8"?>
<!-- Generator: Adobe Illustrator 18.1.1, SVG Export Plug-In . SVG Version: 6.00 Build 0)  -->
<!DOCTYPE svg PUBLIC "-//W3C//DTD SVG 1.1//EN" "http://www.w3.org/Graphics/SVG/1.1/DTD/svg11.dtd">
<svg version="1.1" id="Ebene_1" xmlns="http://www.w3.org/2000/svg" xmlns:xlink="http://www.w3.org/1999/xlink" x="0px" y="0px"
	 viewBox="0 0 500 500" enable-background="new 0 0 500 500" xml:space="preserve">
<path fill="#FFFFFF" d="M251,80c-94,0-170,76-170,170s76,170,170,170c93,0,170-76,170-170S345,80,251,80z M158.1,367.9
	c5.8-4,15.3-8.1,22.9-10.9c24-10,50-22,50-46v-26l-5-3c0-1-13-9-13-24v-5l-4-3c-3-2-9-8-9-13c0-4,2-7,3-7l4-5l-1-5c0,0-5-22-5-35
	c0-28,19-45,50-45c12,0,19,4,19,8l3,5h6c9,0,20,14,20,33c0,20-5,36-5,36l-2,5l4,4c1,1,3,4,3,6c0,8-5,11-6,11l-6,3v7
	c0,16-12,24-12,24l-5,3v26c0,23,25,32,47,40c11.7,3.9,24.1,8.4,30.3,14.1c-26,21.8-59.6,34.9-96.3,34.9
	C215.9,400,183.7,388,158.1,367.9z M361.6,351.5c-9.5-8.8-23.8-14.4-37.6-19.5c-16-6-34-13-34-22v-16c6-5,15-15,17-31
	c6-4,13-13,13-26c0-6-2-11-4-14c2-7,5-21,5-38c0-27-16-49-35-53c-8-9-23-12-35-12c-43,0-70,26-70,65c0,12,2,27,4,35c-2,4-5,10-5,17
	c0,12,8,21,13,26c2,16,12,27,18,32v15c0,11-21,20-38,28c-11.4,5.3-22.3,10.2-29.7,16.5c-26.2-27-42.3-63.8-42.3-104.5
	c0-83,67-150,150-150c82,0,150,67,150,150C401,289.2,386.1,324.8,361.6,351.5z"/>
</svg>
