<?xml version="1.0" encoding="utf-8"?>
<!-- Generator: Adobe Illustrator 18.1.1, SVG Export Plug-In . SVG Version: 6.00 Build 0)  -->
<!DOCTYPE svg PUBLIC "-//W3C//DTD SVG 1.1//EN" "http://www.w3.org/Graphics/SVG/1.1/DTD/svg11.dtd">
<svg version="1.1" id="Ebene_1" xmlns="http://www.w3.org/2000/svg" xmlns:xlink="http://www.w3.org/1999/xlink" x="0px" y="0px"
	 viewBox="0 0 500 500" enable-background="new 0 0 500 500" xml:space="preserve">
<g>
	<path fill="#FFFFFF" d="M375,100h-15v20h15c2,0,5,4,5,10v30H120v-30c0-6,3-10,5-10h15v-20h-15c-14,0-25,13-25,30v220
		c0,17,13,30,30,30h240c17,0,30-13,30-30V130C400,113,389,100,375,100z M380,350c0,6-4,10-10,10H130c-6,0-10-4-10-10V180h260V350z"
		/>
	<path fill="#FFFFFF" d="M170,140c6,0,10-4,10-10V90c0-6-4-10-10-10s-10,4-10,10v40C160,136,164,140,170,140z"/>
	<path fill="#FFFFFF" d="M330,140c6,0,10-4,10-10V90c0-6-4-10-10-10s-10,4-10,10v40C320,136,324,140,330,140z"/>
	<rect x="200" y="100" fill="#FFFFFF" width="100" height="20"/>
	<rect x="340" y="200" fill="#FFFFFF" width="20" height="20"/>
	<rect x="300" y="200" fill="#FFFFFF" width="20" height="20"/>
	<rect x="260" y="200" fill="#FFFFFF" width="20" height="20"/>
	<rect x="220" y="200" fill="#FFFFFF" width="20" height="20"/>
	<rect x="180" y="200" fill="#FFFFFF" width="20" height="20"/>
	<rect x="340" y="240" fill="#FFFFFF" width="20" height="20"/>
	<rect x="300" y="240" fill="#FFFFFF" width="20" height="20"/>
	<rect x="260" y="240" fill="#FFFFFF" width="20" height="20"/>
	<rect x="220" y="240" fill="#FFFFFF" width="20" height="20"/>
	<rect x="180" y="240" fill="#FFFFFF" width="20" height="20"/>
	<rect x="140" y="240" fill="#FFFFFF" width="20" height="20"/>
	<rect x="340" y="280" fill="#FFFFFF" width="20" height="20"/>
	<rect x="300" y="280" fill="#FFFFFF" width="20" height="20"/>
	<rect x="260" y="280" fill="#FFFFFF" width="20" height="20"/>
	<rect x="220" y="280" fill="#FFFFFF" width="20" height="20"/>
	<rect x="180" y="280" fill="#FFFFFF" width="20" height="20"/>
	<rect x="140" y="280" fill="#FFFFFF" width="20" height="20"/>
	<rect x="300" y="320" fill="#FFFFFF" width="20" height="20"/>
	<rect x="260" y="320" fill="#FFFFFF" width="20" height="20"/>
	<rect x="220" y="320" fill="#FFFFFF" width="20" height="20"/>
	<rect x="180" y="320" fill="#FFFFFF" width="20" height="20"/>
	<rect x="140" y="320" fill="#FFFFFF" width="20" height="20"/>
</g>
</svg>
