<?xml version="1.0" encoding="utf-8"?>
<!-- Generator: Adobe Illustrator 18.1.1, SVG Export Plug-In . SVG Version: 6.00 Build 0)  -->
<!DOCTYPE svg PUBLIC "-//W3C//DTD SVG 1.1//EN" "http://www.w3.org/Graphics/SVG/1.1/DTD/svg11.dtd">
<svg version="1.1" id="Ebene_1" xmlns="http://www.w3.org/2000/svg" xmlns:xlink="http://www.w3.org/1999/xlink" x="0px" y="0px"
	 viewBox="0 0 500 500" enable-background="new 0 0 500 500" xml:space="preserve">
<path fill="#FFFFFF" d="M250,100c-105,0-170,54-170,140c0,56,28,99,78,122c-3,17-8,31-16,42l-12,16h20c49,0,77-21,93-40h7
	c106,0,170-52,170-140C420,154,355,100,250,100z M250,361h-17l-3,4c-11,14-30,31-63,35c6-12,9-26,11-42l1-8l-7-3
	c-33-13-72-43-72-107c0-75,56-120,150-120s150,45,150,121C400,277,385,361,250,361z"/>
</svg>
