<?xml version="1.0" encoding="utf-8"?>
<!-- Generator: Adobe Illustrator 18.1.1, SVG Export Plug-In . SVG Version: 6.00 Build 0)  -->
<!DOCTYPE svg PUBLIC "-//W3C//DTD SVG 1.1//EN" "http://www.w3.org/Graphics/SVG/1.1/DTD/svg11.dtd">
<svg version="1.1" id="Ebene_1" xmlns="http://www.w3.org/2000/svg" xmlns:xlink="http://www.w3.org/1999/xlink" x="0px" y="0px"
	 viewBox="0 0 150 150" enable-background="new 0 0 150 150" xml:space="preserve">
<g id="_x32__19_">
	<g>
		<path fill="#FFFFFF" d="M75,111.5c0,0-42.2-18.6-45-20c0,2.2,0.5,6.2,2.6,7.2l38.2,17.2c3.4,1.6,4.8,1.6,8.5,0l38.2-17.2
			c1.9-0.9,2.6-5,2.6-7.2C117.5,92.8,75,111.5,75,111.5z M75,38.6C75.3,38.9,75.2,38.7,75,38.6L75,38.6z M32.6,80.8L70.8,98
			c3.4,1.6,4.8,1.6,8.5,0l38.2-17.2c1.9-0.9,2.6-5,2.6-7.2c-2.5,1.2-45,20-45,20S32.5,75,30,73.6C30,75.7,30.5,79.7,32.6,80.8z
			 M32.6,62.8L70.8,80c3.4,1.6,4.8,1.6,8.5,0l38.2-17.2c2.8-1.3,2.9-6.9,0-8.5L79.2,35.2c-3-1.8-5.1-1.7-8.5,0L32.6,54.3
			C29.7,56.2,29.6,61.2,32.6,62.8z M75,39.6l39,19L75,75L36,58.6L75,39.6z"/>
	</g>
</g>
</svg>
