<?xml version="1.0" encoding="utf-8"?>
<!-- Generator: Adobe Illustrator 18.1.1, SVG Export Plug-In . SVG Version: 6.00 Build 0)  -->
<!DOCTYPE svg PUBLIC "-//W3C//DTD SVG 1.1//EN" "http://www.w3.org/Graphics/SVG/1.1/DTD/svg11.dtd">
<svg version="1.1" id="Ebene_1" xmlns="http://www.w3.org/2000/svg" xmlns:xlink="http://www.w3.org/1999/xlink" x="0px" y="0px"
	 viewBox="0 0 150 150" enable-background="new 0 0 150 150" xml:space="preserve">
<g id="_x34__10_">
	<g>
		<path fill="#FFFFFF" d="M44.1,41.3c-1.6,0-2.8,1.3-2.8,2.8s1.3,2.8,2.8,2.8s2.8-1.3,2.8-2.8S45.6,41.3,44.1,41.3z M66.6,41.3
			c-1.6,0-2.8,1.3-2.8,2.8s1.3,2.8,2.8,2.8s2.8-1.3,2.8-2.8S68.1,41.3,66.6,41.3z M55.3,41.3c-1.6,0-2.8,1.3-2.8,2.8
			s1.3,2.8,2.8,2.8s2.8-1.3,2.8-2.8S56.9,41.3,55.3,41.3z M108.8,30H41.3C35,30,30,35,30,41.3v67.5c0,6.2,5,11.3,11.3,11.3h67.5
			c6.2,0,11.3-5,11.3-11.3V41.3C120,35,115,30,108.8,30z M114.4,108.8c0,3.1-2.5,5.6-5.6,5.6H41.3c-3.1,0-5.6-2.5-5.6-5.6V58.1h78.8
			V108.8z M114.4,52.5H35.6V41.3c0-3.1,2.5-5.6,5.6-5.6h67.5c3.1,0,5.6,2.5,5.6,5.6V52.5z"/>
	</g>
</g>
</svg>
