<?xml version="1.0" encoding="utf-8"?>
<!-- Generator: Adobe Illustrator 18.1.1, SVG Export Plug-In . SVG Version: 6.00 Build 0)  -->
<!DOCTYPE svg PUBLIC "-//W3C//DTD SVG 1.1//EN" "http://www.w3.org/Graphics/SVG/1.1/DTD/svg11.dtd">
<svg version="1.1" id="Ebene_1" xmlns="http://www.w3.org/2000/svg" xmlns:xlink="http://www.w3.org/1999/xlink" x="0px" y="0px"
	 viewBox="0 0 500 500" enable-background="new 0 0 500 500" xml:space="preserve">
<g>
	<path fill="#FFFFFF" d="M250,160c-50,0-90,40-90,90s40,90,90,90s90-40,90-90S300,160,250,160z M250,320c-39,0-70-31-70-70
		s31-70,70-70s70,31,70,70S289,320,250,320z"/>
	<path fill="#FFFFFF" d="M439,276v-54l-46-15c-3-10-7-20-12-29l22-44l-38-38l-44,22c-9-5-19-9-29-12l-15-46h-54l-16,47
		c-10,3-20,7-29,12l-44-22l-38,38l22,44c-5,9-9,19-12,29l-46,15v54l47,16c3,10,7,20,12,29l-22,44l38,38l44-22c9,5,19,9,29,12l15,46
		h54l15-48c10-3,20-7,29-12l44,22l38-38l-22-44c5-9,9-19,12-29L439,276z M379,361l-18,18l-40-20l-5,3c-11,6-22,11-34,14l-5,1l-14,43
		h-26v0l-14-43l-5-1c-12-3-23-8-34-14l-5-3l-40,20l-18-18l20-40l-3-5c-6-11-11-22-14-34l-1-5l-43-14v-26l43-14l1-5c3-12,8-24,14-34
		l3-5l-20-40l18-18l40,20l5-3c11-6,22-11,34-14l5-1l14-43h26l14,43l5,1c12,3,23,8,34,14l5,3l40-20l18,18l-20,40l3,5
		c6,11,11,22,14,34l1,5l43,14v26l-43,14l-1,5c-3,12-8,24-14,34l-3,5L379,361z"/>
</g>
</svg>
