<?xml version="1.0"?>
<!--Icons from directory ""-->
<svg xmlns="http://www.w3.org/2000/svg" width="32" height="1984" viewBox="0 0 32 1984"><svg viewBox="0 0 50 50" enable-background="new 0 0 50 50" width="32" height="32" id="archive" y="0"><path d="m42 20h-2v-5c0-0.6-0.4-1-1-1h-28c-0.6 0-1 0.4-1 1v5h-2v-5c0-1.7 1.3-3 3-3h28c1.7 0 3 1.3 3 3v5z"/><path d="m37 40h-24c-1.7 0-3-1.3-3-3v-17h2v17c0 0.6 0.4 1 1 1h24c0.6 0 1-0.4 1-1v-17h2v17c0 1.7-1.3 3-3 3z"/><path d="m29 26h-8c-0.6 0-1-0.4-1-1s0.4-1 1-1h8c0.6 0 1 0.4 1 1s-0.4 1-1 1z"/><path d="m8 18h34v2h-34z"/></svg><svg viewBox="0 0 50 50" enable-background="new 0 0 50 50" width="32" height="32" id="arrow-down" y="32"><path d="m25 42c-9.4 0-17-7.6-17-17s7.6-17 17-17 17 7.6 17 17-7.6 17-17 17zm0-32c-8.3 0-15 6.7-15 15s6.7 15 15 15 15-6.7 15-15-6.7-15-15-15z"/><path d="m25 34.4l-9.7-9.7 1.4-1.4 8.3 8.3 8.3-8.3 1.4 1.4z"/><path d="m24 16h2v17h-2z"/></svg><svg viewBox="0 0 50 50" enable-background="new 0 0 50 50" width="32" height="32" id="arrow-left" y="64"><path d="m25 42c-9.4 0-17-7.6-17-17s7.6-17 17-17 17 7.6 17 17-7.6 17-17 17zm0-32c-8.3 0-15 6.7-15 15s6.7 15 15 15 15-6.7 15-15-6.7-15-15-15z"/><path d="m25.3 34.7l-9.7-9.7 9.7-9.7 1.4 1.4-8.3 8.3 8.3 8.3z"/><path d="m17 24h17v2h-17z"/></svg><svg viewBox="0 0 50 50" enable-background="new 0 0 50 50" width="32" height="32" id="arrow-right" y="96"><path d="m25 42c-9.4 0-17-7.6-17-17s7.6-17 17-17 17 7.6 17 17-7.6 17-17 17zm0-32c-8.3 0-15 6.7-15 15s6.7 15 15 15 15-6.7 15-15-6.7-15-15-15z"/><path d="m24.7 34.7l-1.4-1.4 8.3-8.3-8.3-8.3 1.4-1.4 9.7 9.7z"/><path d="m16 24h17v2h-17z"/></svg><svg viewBox="0 0 50 50" enable-background="new 0 0 50 50" width="32" height="32" id="arrow-up" y="128"><path d="m25 42c-9.4 0-17-7.6-17-17s7.6-17 17-17 17 7.6 17 17-7.6 17-17 17zm0-32c-8.3 0-15 6.7-15 15s6.7 15 15 15 15-6.7 15-15-6.7-15-15-15z"/><path d="m33.3 26.7l-8.3-8.3-8.3 8.3-1.4-1.4 9.7-9.7 9.7 9.7z"/><path d="m24 17h2v17h-2z"/></svg><svg viewBox="0 0 50 50" enable-background="new 0 0 50 50" width="32" height="32" id="bell" y="160"><path d="m42 36c-6.5 0-7.4-6.3-8.2-11.9-0.9-6.2-1.7-12.1-8.8-12.1s-7.9 5.9-8.8 12.1c-0.8 5.6-1.7 11.9-8.2 11.9v-2c4.6 0 5.3-3.9 6.2-10.1s2-13.9 10.8-13.9 9.9 7.7 10.8 13.9c0.9 6.2 1.6 10.1 6.2 10.1v2z"/><path d="m25 40c-2.8 0-5-2.2-5-5h2c0 1.7 1.3 3 3 3s3-1.3 3-3h2c0 2.8-2.2 5-5 5z"/><path d="m8 34h34v2h-34z"/><path d="m27 10c0 1.1-0.9 1.5-2 1.5s-2-0.4-2-1.5 0.9-2 2-2 2 0.9 2 2z"/></svg><svg viewBox="0 0 50 50" enable-background="new 0 0 50 50" width="32" height="32" id="calendar" y="192"><path d="m37 38h-24c-1.7 0-3-1.3-3-3v-22c0-1.7 1.1-3 2.5-3h1.5v2h-1.5c-0.2 0-0.5 0.4-0.5 1v22c0 0.6 0.4 1 1 1h24c0.6 0 1-0.4 1-1v-22c0-0.6-0.3-1-0.5-1h-1.5v-2h1.5c1.4 0 2.5 1.3 2.5 3v22c0 1.7-1.3 3-3 3z"/><path d="m17 14c-0.6 0-1-0.4-1-1v-4c0-0.6 0.4-1 1-1s1 0.4 1 1v4c0 0.6-0.4 1-1 1z"/><path d="m33 14c-0.6 0-1-0.4-1-1v-4c0-0.6 0.4-1 1-1s1 0.4 1 1v4c0 0.6-0.4 1-1 1z"/><path d="m20 10h10v2h-10z"/><path d="m12 16h26v2h-26z"/><path d="m34 20h2v2h-2z"/><path d="m30 20h2v2h-2z"/><path d="m26 20h2v2h-2z"/><path d="m22 20h2v2h-2z"/><path d="m18 20h2v2h-2z"/><path d="m34 24h2v2h-2z"/><path d="m30 24h2v2h-2z"/><path d="m26 24h2v2h-2z"/><path d="m22 24h2v2h-2z"/><path d="m18 24h2v2h-2z"/><path d="m14 24h2v2h-2z"/><path d="m34 28h2v2h-2z"/><path d="m30 28h2v2h-2z"/><path d="m26 28h2v2h-2z"/><path d="m22 28h2v2h-2z"/><path d="m18 28h2v2h-2z"/><path d="m14 28h2v2h-2z"/><path d="m30 32h2v2h-2z"/><path d="m26 32h2v2h-2z"/><path d="m22 32h2v2h-2z"/><path d="m18 32h2v2h-2z"/><path d="m14 32h2v2h-2z"/></svg><svg viewBox="0 0 50 50" enable-background="new 0 0 50 50" width="32" height="32" id="cart" y="224"><path d="m35 34h-22c-0.3 0-0.6-0.2-0.8-0.4s-0.2-0.6-0.1-0.9l1.9-4.8-1.9-17.9h-6.1v-2h7c0.5 0 0.9 0.4 1 0.9l2 19c0 0.2 0 0.3-0.1 0.5l-1.4 3.6h21.5l-1 2z"/><path d="m15.2 29l-0.4-2 23.2-4.8v-8.2h-24v-2h25c0.6 0 1 0.4 1 1v10c0 0.5-0.3 0.9-0.8 1l-24 5z"/><path d="m36 40c-2.2 0-4-1.8-4-4s1.8-4 4-4 4 1.8 4 4-1.8 4-4 4zm0-6c-1.1 0-2 0.9-2 2s0.9 2 2 2 2-0.9 2-2-0.9-2-2-2z"/><path d="m12 40c-2.2 0-4-1.8-4-4s1.8-4 4-4 4 1.8 4 4-1.8 4-4 4zm0-6c-1.1 0-2 0.9-2 2s0.9 2 2 2 2-0.9 2-2-0.9-2-2-2z"/></svg><svg viewBox="0 0 50 50" enable-background="new 0 0 50 50" width="32" height="32" id="chart" y="256"><path d="m18 36h-2v-10h-4v10h-2v-12h8z"/><path d="m28 36h-2v-16h-4v16h-2v-18h8z"/><path d="m38 36h-2v-22h-4v22h-2v-24h8z"/><path d="m8 36h32v2h-32z"/></svg><svg viewBox="0 0 50 50" enable-background="new 0 0 50 50" width="32" height="32" id="check" y="288"><path d="m25 42c-9.4 0-17-7.6-17-17s7.6-17 17-17 17 7.6 17 17-7.6 17-17 17zm0-32c-8.3 0-15 6.7-15 15s6.7 15 15 15 15-6.7 15-15-6.7-15-15-15z"/><path d="m23 32.4l-8.7-8.7 1.4-1.4 7.3 7.3 11.3-11.3 1.4 1.4z"/></svg><svg viewBox="0 0 50 50" enable-background="new 0 0 50 50" width="32" height="32" id="chevron-down" y="320"><path d="m25 32.4l-9.7-9.7 1.4-1.4 8.3 8.3 8.3-8.3 1.4 1.4z"/></svg><svg viewBox="0 0 50 50" enable-background="new 0 0 50 50" width="32" height="32" id="chevron-left" y="352"><path d="m27.3 34.7l-9.7-9.7 9.7-9.7 1.4 1.4-8.3 8.3 8.3 8.3z"/></svg><svg viewBox="0 0 50 50" enable-background="new 0 0 50 50" width="32" height="32" id="chevron-right" y="384"><path d="m22.7 34.7l-1.4-1.4 8.3-8.3-8.3-8.3 1.4-1.4 9.7 9.7z"/></svg><svg viewBox="0 0 50 50" enable-background="new 0 0 50 50" width="32" height="32" id="chevron-up" y="416"><path d="m33.3 28.7l-8.3-8.3-8.3 8.3-1.4-1.4 9.7-9.7 9.7 9.7z"/></svg><svg viewBox="0 0 50 50" enable-background="new 0 0 50 50" width="32" height="32" id="clock" y="448"><path d="m25 42c-9.4 0-17-7.6-17-17s7.6-17 17-17 17 7.6 17 17-7.6 17-17 17zm0-32c-8.3 0-15 6.7-15 15s6.7 15 15 15 15-6.7 15-15-6.7-15-15-15z"/><path d="m30.3 33.7l-6.3-6.3v-11.4h2v10.6l5.7 5.7z"/></svg><svg viewBox="0 0 50 50" enable-background="new 0 0 50 50" width="32" height="32" id="close" y="480"><path d="m37.304 11.282l1.414 1.414-26.022 26.02-1.414-1.413z"/><path d="m12.696 11.282l26.022 26.02-1.414 1.415-26.022-26.02z"/></svg><svg viewBox="0 0 50 50" enable-background="new 0 0 50 50" width="32" height="32" id="comment" y="512"><path d="m15 42h-2l1.2-1.6c0.8-1.1 1.3-2.5 1.6-4.2-5-2.3-7.8-6.6-7.8-12.2 0-8.6 6.5-14 17-14s17 5.4 17 14c0 8.8-6.4 14-17 14h-0.7c-1.6 1.9-4.4 4-9.3 4zm10-30c-9.4 0-15 4.5-15 12 0 6.4 3.9 9.4 7.2 10.7l0.7 0.3-0.1 0.8c-0.2 1.6-0.5 3-1.1 4.2 3.3-0.4 5.2-2.1 6.3-3.5l0.3-0.4h1.7c13.5 0 15-8.4 15-12 0-7.6-5.6-12.1-15-12.1z"/></svg><svg xmlns:xlink="http://www.w3.org/1999/xlink" id="credit-card" xml:space="preserve" viewBox="0 0 2500 2500" version="1.1" y="544" x="0px" enable-background="new 0 0 2500 2500" width="32" height="32"><path d="m1950 1900h-1400c-85 0-150-65-150-150v-1e3c0-85 65-150 150-150h1400c85 0 150 65 150 150v1e3c0 85-65 150-150 150zm-1400-1200c-30 0-50 20-50 50v1e3c0 30 20 50 50 50h1400c30 0 50-20 50-50v-1e3c0-30-20-50-50-50h-1400z"/><path d="m450 800h1600v300h-1600v-300z"/></svg><svg xmlns:xlink="http://www.w3.org/1999/xlink" id="dislike" xml:space="preserve" viewBox="0 0 2500 2500" version="1.1" y="576" x="0px" enable-background="new 0 0 2500 2500" width="32" height="32">	<path d="m2050.1 1240c0 105-85 160-200 160h-335c25 90 35 175 35 250 0 290-80 350-150 350-45 0-80-5-125-30-15-10-20-20-25-35l-50-270c-55-140-190-265-300-350v-715c40 0 80-20 130-45 55-25 110-55 170-55h475c100 0 175 80 175 150 0 15 0 25-5 35 60 25 105 75 105 140 0 30-5 55-15 80 40 25 75 70 75 120 0 30-15 60-30 85 40 30 70 80 70 130zm-105 0c0-65-65-70-75-100-10-35 40-45 40-105s-75-60-85-95c-10-40 25-50 25-110v-10c-10-50-85-55-100-75-15-25 0-35 0-90 0-30-35-50-75-50h-475c-40 0-80 20-130 45-40 20-80 40-120 50v525c125 95 285 235 345 410v10l45 250c20 5 35 5 60 5 10 0 50-60 50-250 0-75-15-155-40-250h-10c-30 0-50-20-50-50s20-50 50-50h450c50 0 95-25 95-60z"/>	<path d="m850.1 500h-300c-55 0-100 45-100 100v700c0 55 45 100 100 100h300c55 0 100-45 100-100v-700c0-55-45-100-100-100zm-300 800v-700h300v700h-300z"/></svg><svg viewBox="0 0 50 50" enable-background="new 0 0 50 50" width="32" height="32" id="envelope" y="608"><path opacity=".9" d="m31.796 24.244l9.97 9.97-1.415 1.414-9.97-9.97z"/><path opacity=".9" d="m18.278 24.287l1.414 1.414-9.9 9.9-1.414-1.41z"/><path d="m25 29.9c-1.5 0-3.1-0.6-4.2-1.8l-12.5-12.4 1.4-1.4 12.5 12.5c1.6 1.6 4.1 1.6 5.7 0l12.5-12.5 1.4 1.4-12.6 12.5c-1.1 1.1-2.7 1.7-4.2 1.7z"/><path d="m39 38h-28c-1.7 0-3-1.3-3-3v-20c0-1.7 1.3-3 3-3h28c1.7 0 3 1.3 3 3v20c0 1.7-1.3 3-3 3zm-28-24c-0.6 0-1 0.4-1 1v20c0 0.6 0.4 1 1 1h28c0.6 0 1-0.4 1-1v-20c0-0.6-0.4-1-1-1h-28z"/></svg><svg viewBox="0 0 50 50" enable-background="new 0 0 50 50" width="32" height="32" id="exclamation" y="640"><path d="m25 42c-9.4 0-17-7.6-17-17s7.6-17 17-17 17 7.6 17 17-7.6 17-17 17zm0-32c-8.3 0-15 6.7-15 15s6.7 15 15 15 15-6.7 15-15-6.7-15-15-15z"/><path d="m24 32h2v2h-2z"/><path d="m25.6 30h-1.2l-0.4-8v-6h2v6z"/></svg><svg viewBox="0 0 50 50" enable-background="new 0 0 50 50" width="32" height="32" id="external-link" y="672"><path d="m38.288 10.297l1.414 1.415-14.99 14.99-1.414-1.414z"/><path d="m40 20h-2v-8h-8v-2h10z"/><path d="m35 38h-20c-1.7 0-3-1.3-3-3v-20c0-1.7 1.3-3 3-3h11v2h-11c-0.6 0-1 0.4-1 1v20c0 0.6 0.4 1 1 1h20c0.6 0 1-0.4 1-1v-11h2v11c0 1.7-1.3 3-3 3z"/></svg><svg viewBox="0 0 50 50" enable-background="new 0 0 50 50" width="32" height="32" id="eye" y="704"><path d="m25 36c-11.5 0-16.7-10.1-16.9-10.6-0.1-0.3-0.1-0.6 0-0.9 0.2-0.4 5.4-10.5 16.9-10.5s16.7 10.1 16.9 10.6c0.1 0.3 0.1 0.6 0 0.9-0.2 0.4-5.4 10.5-16.9 10.5zm-14.9-11c1.1 1.9 5.9 9 14.9 9s13.7-7.1 14.9-9c-1.1-1.9-5.9-9-14.9-9s-13.7 7.1-14.9 9z"/><path d="m25 34c-5 0-9-4-9-9s4-9 9-9 9 4 9 9-4 9-9 9zm0-16c-3.9 0-7 3.1-7 7s3.1 7 7 7 7-3.1 7-7-3.1-7-7-7z"/><path d="m25 30c-2.8 0-5-2.2-5-5 0-0.6 0.4-1 1-1s1 0.4 1 1c0 1.7 1.3 3 3 3s3-1.3 3-3-1.3-3-3-3c-0.6 0-1-0.4-1-1s0.4-1 1-1c2.8 0 5 2.2 5 5s-2.2 5-5 5z"/></svg><svg xmlns:xlink="http://www.w3.org/1999/xlink" id="folder" xml:space="preserve" viewBox="0 0 2500 2500" version="1.1" y="736" x="0px" enable-background="new 0 0 2500 2500" width="32" height="32"><path d="m1850 2e3h-1200c-85 0-150-65-150-150v-850h100v850c0 30 20 50 50 50h1200c30 0 50-20 50-50v-850h100v850c0 85-65 150-150 150z"/><path d="m500 900h1500v100h-1500v-100z"/><path d="m1850 710h-660v-30c0-85-65-150-150-150h-390c-85 0-150 65-150 150v320h100v-320c0-30 20-50 50-50h390c30 0 50 20 50 50v130h760c30 0 50 20 50 50v200h100v-200c0-85-65-150-150-150z"/></svg><svg viewBox="0 0 50 50" enable-background="new 0 0 50 50" width="32" height="32" id="gear" y="768"><path d="m25 34c-5 0-9-4-9-9s4-9 9-9 9 4 9 9-4 9-9 9zm0-16c-3.9 0-7 3.1-7 7s3.1 7 7 7 7-3.1 7-7-3.1-7-7-7z"/><path d="m27.7 44h-5.4l-1.5-4.6c-1-0.3-2-0.7-2.9-1.2l-4.4 2.2-3.8-3.8 2.2-4.4c-0.5-0.9-0.9-1.9-1.2-2.9l-4.7-1.6v-5.4l4.6-1.5c0.3-1 0.7-2 1.2-2.9l-2.2-4.4 3.8-3.8 4.4 2.2c0.9-0.5 1.9-0.9 2.9-1.2l1.6-4.7h5.4l1.5 4.6c1 0.3 2 0.7 2.9 1.2l4.4-2.2 3.8 3.8-2.2 4.4c0.5 0.9 0.9 1.9 1.2 2.9l4.6 1.5v5.4l-4.6 1.5c-0.3 1-0.7 2-1.2 2.9l2.2 4.4-3.8 3.8-4.4-2.2c-0.9 0.5-1.9 0.9-2.9 1.2l-1.5 4.8zm-4-2h2.6l1.4-4.3 0.5-0.1c1.2-0.3 2.3-0.8 3.4-1.4l0.5-0.3 4 2 1.8-1.8-2-4 0.3-0.5c0.6-1 1.1-2.2 1.4-3.4l0.1-0.5 4.3-1.4v-2.6l-4.3-1.4-0.1-0.5c-0.3-1.2-0.8-2.3-1.4-3.4l-0.3-0.5 2-4-1.8-1.8-4 2-0.5-0.3c-1.1-0.6-2.2-1.1-3.4-1.4l-0.5-0.1-1.4-4.3h-2.6l-1.4 4.3-0.5 0.1c-1.2 0.3-2.3 0.8-3.4 1.4l-0.5 0.3-4-2-1.8 1.8 2 4-0.3 0.5c-0.6 1-1.1 2.2-1.4 3.4l-0.1 0.5-4.3 1.4v2.6l4.3 1.4 0.1 0.5c0.3 1.2 0.8 2.3 1.4 3.4l0.3 0.5-2 4 1.8 1.8 4-2 0.5 0.3c1.1 0.6 2.2 1.1 3.4 1.4l0.5 0.1 1.4 4.3z"/></svg><svg viewBox="0 0 50 50" enable-background="new 0 0 50 50" width="32" height="32" id="heart" y="800"><path d="m25 39.7l-0.6-0.5c-12.9-10.5-16.4-14.2-16.4-20.2 0-5 4-9 9-9 4.1 0 6.4 2.3 8 4.1 1.6-1.8 3.9-4.1 8-4.1 5 0 9 4 9 9 0 6-3.5 9.7-16.4 20.2l-0.6 0.5zm-8-27.7c-3.9 0-7 3.1-7 7 0 5.1 3.2 8.5 15 18.1 11.8-9.6 15-13 15-18.1 0-3.9-3.1-7-7-7-3.5 0-5.4 2.1-6.9 3.8l-1.1 1.3-1.1-1.3c-1.5-1.7-3.4-3.8-6.9-3.8z"/></svg><svg viewBox="0 0 50 50" enable-background="new 0 0 50 50" width="32" height="32" id="image" y="832"><path d="m39 38h-28c-1.7 0-3-1.3-3-3v-20c0-1.7 1.3-3 3-3h28c1.7 0 3 1.3 3 3v20c0 1.7-1.3 3-3 3zm-28-24c-0.6 0-1 0.4-1 1v20c0 0.6 0.4 1 1 1h28c0.6 0 1-0.4 1-1v-20c0-0.6-0.4-1-1-1h-28z"/><path d="m30 24c-2.2 0-4-1.8-4-4s1.8-4 4-4 4 1.8 4 4-1.8 4-4 4zm0-6c-1.1 0-2 0.9-2 2s0.9 2 2 2 2-0.9 2-2-0.9-2-2-2z"/><path d="m35.3 37.7l-16.3-15.3-9.3 8.6-1.4-1.4 10.7-10 17.7 16.7z"/><path d="m40.4 32.7l-5.4-4.4-4.5 3.7-1.3-1.6 5.8-4.7 6.6 5.4z"/></svg><svg viewBox="0 0 50 50" enable-background="new 0 0 50 50" width="32" height="32" id="like" y="864"><path d="m40 23.2c0-2.1-1.7-3.2-4-3.2h-6.7c0.5-1.8 0.7-3.5 0.7-5 0-5.8-1.6-7-3-7-0.9 0-1.6 0.1-2.5 0.6-0.3 0.2-0.4 0.4-0.5 0.7l-1 5.4c-1.1 2.8-3.8 5.3-6 7v14.3c0.8 0 1.6 0.4 2.6 0.9 1.1 0.5 2.2 1.1 3.4 1.1h9.5c2 0 3.5-1.6 3.5-3 0-0.3 0-0.5-0.1-0.7 1.2-0.5 2.1-1.5 2.1-2.8 0-0.6-0.1-1.1-0.3-1.6 0.8-0.5 1.5-1.4 1.5-2.4 0-0.6-0.3-1.2-0.6-1.7 0.8-0.6 1.4-1.6 1.4-2.6zm-2.1 0c0 1.3-1.3 1.4-1.5 2-0.2 0.7 0.8 0.9 0.8 2.1s-1.5 1.2-1.7 1.9c-0.2 0.8 0.5 1 0.5 2.2v0.2c-0.2 1-1.7 1.1-2 1.5-0.3 0.5 0 0.7 0 1.8 0 0.6-0.7 1-1.5 1h-9.5c-0.8 0-1.6-0.4-2.6-0.9-0.8-0.4-1.6-0.8-2.4-1v-10.5c2.5-1.9 5.7-4.7 6.9-8.2v-0.2l0.9-5c0.4-0.1 0.7-0.1 1.2-0.1 0.2 0 1 1.2 1 5 0 1.5-0.3 3.1-0.8 5h-0.2c-0.6 0-1 0.4-1 1s0.4 1 1 1h9c1 0 1.9 0.5 1.9 1.2z"/><path d="m16 38h-6c-1.1 0-2-0.9-2-2v-14c0-1.1 0.9-2 2-2h6c1.1 0 2 0.9 2 2v14c0 1.1-0.9 2-2 2zm-6-16v14h6v-14h-6z"/></svg><svg viewBox="0 0 50 50" enable-background="new 0 0 50 50" width="32" height="32" id="link" y="896"><path d="m24 30.2c0 0.2 0.1 0.5 0.1 0.8 0 1.4-0.5 2.6-1.5 3.6l-2 2c-1 1-2.2 1.5-3.6 1.5-2.8 0-5.1-2.3-5.1-5.1 0-1.4 0.5-2.6 1.5-3.6l2-2c1-1 2.2-1.5 3.6-1.5 0.3 0 0.5 0 0.8 0.1l1.5-1.5c-0.7-0.3-1.5-0.4-2.3-0.4-1.9 0-3.6 0.7-4.9 2l-2 2c-1.3 1.3-2 3-2 4.9 0 3.8 3.1 6.9 6.9 6.9 1.9 0 3.6-0.7 4.9-2l2-2c1.3-1.3 2-3 2-4.9 0-0.8-0.1-1.6-0.4-2.3l-1.5 1.5z"/><path d="m33 10.1c-1.9 0-3.6 0.7-4.9 2l-2 2c-1.3 1.3-2 3-2 4.9 0 0.8 0.1 1.6 0.4 2.3l1.5-1.5c0-0.2-0.1-0.5-0.1-0.8 0-1.4 0.5-2.6 1.5-3.6l2-2c1-1 2.2-1.5 3.6-1.5 2.8 0 5.1 2.3 5.1 5.1 0 1.4-0.5 2.6-1.5 3.6l-2 2c-1 1-2.2 1.5-3.6 1.5-0.3 0-0.5 0-0.8-0.1l-1.5 1.5c0.7 0.3 1.5 0.4 2.3 0.4 1.9 0 3.6-0.7 4.9-2l2-2c1.3-1.3 2-3 2-4.9 0-3.8-3.1-6.9-6.9-6.9z"/><path d="m20 31c-0.3 0-0.5-0.1-0.7-0.3-0.4-0.4-0.4-1 0-1.4l10-10c0.4-0.4 1-0.4 1.4 0s0.4 1 0 1.4l-10 10c-0.2 0.2-0.4 0.3-0.7 0.3z"/></svg><svg viewBox="0 0 50 50" enable-background="new 0 0 50 50" width="32" height="32" id="location" y="928"><path d="m25 42.5l-0.8-0.9c-0.5-0.5-12.2-14.3-12.2-22.6 0-7.2 5.8-13 13-13s13 5.8 13 13c0 8.3-11.7 22.1-12.2 22.7l-0.8 0.8zm0-34.5c-6.1 0-11 4.9-11 11 0 6.4 8.4 17.2 11 20.4 2.6-3.2 11-14 11-20.4 0-6.1-4.9-11-11-11z"/><path d="m25 24c-2.8 0-5-2.2-5-5s2.2-5 5-5 5 2.2 5 5-2.2 5-5 5zm0-8c-1.7 0-3 1.3-3 3s1.3 3 3 3 3-1.3 3-3-1.3-3-3-3z"/></svg><svg viewBox="0 0 50 50" enable-background="new 0 0 50 50" width="32" height="32" id="lock" y="960"><path d="m34 23h-2v-4c0-3.9-3.1-7-7-7s-7 3.1-7 7v4h-2v-4c0-5 4-9 9-9s9 4 9 9v4z"/><path d="m33 40h-16c-1.7 0-3-1.3-3-3v-12c0-1.7 1.3-3 3-3h16c1.7 0 3 1.3 3 3v12c0 1.7-1.3 3-3 3zm-16-16c-0.6 0-1 0.4-1 1v12c0 0.6 0.4 1 1 1h16c0.6 0 1-0.4 1-1v-12c0-0.6-0.4-1-1-1h-16z"/><circle cy="28" cx="25" r="2"/><path d="m25.5 28h-1l-1 6h3z"/></svg><svg xmlns:xlink="http://www.w3.org/1999/xlink" id="logout" xml:space="preserve" viewBox="0 0 2500 2500" version="1.1" y="992" x="0px" enable-background="new 0 0 2500 2500" width="32" height="32">	<path d="m1200 350h100v900h-100v-900z"/>	<path d="m1398.8 463v101.7c343.4 68.8 601.2 371.3 601.2 735.3 0 415-335 750-750 750s-750-335-750-750c0-363.2 256.6-665.1 598.8-734.8v-101.8c-397.7 71.1-698.8 418.2-698.8 836.6 0 470 380 850 850 850s850-380 850-850c0-419.2-302.3-766.8-701.2-837z"/></svg><svg xmlns:xlink="http://www.w3.org/1999/xlink" id="maximize" xml:space="preserve" viewBox="0 0 2500 2500" version="1.1" y="1024" x="0px" enable-background="new 0 0 2500 2500" width="32" height="32"><path d="m1614.4 804.8l70.7 70.8-749.5 749.5-70.7-70.7 749.5-749.6z"/><path d="m1700 1290h-100v-400h-400v-100h500v500z"/><path d="m1750 600h-1e3c-85 0-150 65-150 150v1e3c0 85 65 150 150 150h1e3c85 0 150-65 150-150v-1e3c0-85-65-150-150-150zm50 600v550c0 30-20 50-50 50h-1e3c-30 0-50-20-50-50v-1e3c0-30 20-50 50-50h1e3c30 0 50 20 50 50v450z"/></svg><svg xmlns:xlink="http://www.w3.org/1999/xlink" id="minimize" xml:space="preserve" viewBox="0 0 2500 2500" version="1.1" y="1056" x="0px" enable-background="new 0 0 2500 2500" width="32" height="32"><path d="m650 1200h1200v100h-1200v-100z"/></svg><svg viewBox="0 0 50 50" enable-background="new 0 0 50 50" width="32" height="32" id="minus" y="1088"><path d="m25 42c-9.4 0-17-7.6-17-17s7.6-17 17-17 17 7.6 17 17-7.6 17-17 17zm0-32c-8.3 0-15 6.7-15 15s6.7 15 15 15 15-6.7 15-15-6.7-15-15-15z"/><path d="m16 24h18v2h-18z"/></svg><svg viewBox="0 0 50 50" enable-background="new 0 0 50 50" width="32" height="32" id="navicon" y="1120"><path d="m10 12h30v4h-30z"/><path d="m10 22h30v4h-30z"/><path d="m10 32h30v4h-30z"/></svg><svg viewBox="0 0 50 50" enable-background="new 0 0 50 50" width="32" height="32" id="paperclip" y="1152"><path d="m13.8 39.6c-1.5 0-3.1-0.6-4.2-1.8-2.3-2.3-2.3-6.1 0-8.5l17-17c3.1-3.1 8.2-3.1 11.3 0s3.1 8.2 0 11.3l-12.8 12.8-1.4-1.4 12.7-12.7c2.3-2.3 2.3-6.1 0-8.5-2.3-2.3-6.1-2.3-8.5 0l-17 17c-0.8 0.8-1.2 1.8-1.2 2.8 0 1.1 0.4 2.1 1.2 2.8 1.6 1.6 4.1 1.6 5.7 0l12.7-12.7c0.8-0.8 0.8-2 0-2.8s-2-0.8-2.8 0l-8.5 8.4-1.4-1.4 8.5-8.5c1.6-1.6 4.1-1.6 5.7 0s1.6 4.1 0 5.7l-12.8 12.7c-1.1 1.2-2.7 1.8-4.2 1.8z"/></svg><svg xmlns:xlink="http://www.w3.org/1999/xlink" id="pencil" xml:space="preserve" viewBox="0 0 2500 2500" version="1.1" y="1184" x="0px" enable-background="new 0 0 2500 2500" width="32" height="32"><path d="m480 2020l125-495 745-745 370 370-745 745-495 125zm215-445l-75 305 305-75 655-655-230-230-655 655z"/><path d="m1750 1120l-370-370 150-150 25 5c180 25 320 165 345 345l5 25-155 145zm-230-370l230 230 45-45c-25-115-115-205-230-230l-45 45z"/></svg><svg viewBox="0 0 50 50" enable-background="new 0 0 50 50" width="32" height="32" id="play" y="1216"><path d="m25 42c-9.4 0-17-7.6-17-17s7.6-17 17-17 17 7.6 17 17-7.6 17-17 17zm0-32c-8.3 0-15 6.7-15 15s6.7 15 15 15 15-6.7 15-15-6.7-15-15-15z"/><path d="m20 33.7v-17.4l15 8.7-15 8.7zm2-14v10.5l9-5.3-9-5.2z"/></svg><svg viewBox="0 0 50 50" enable-background="new 0 0 50 50" width="32" height="32" id="plus" y="1248"><path d="m25 42c-9.4 0-17-7.6-17-17s7.6-17 17-17 17 7.6 17 17-7.6 17-17 17zm0-32c-8.3 0-15 6.7-15 15s6.7 15 15 15 15-6.7 15-15-6.7-15-15-15z"/><path d="m16 24h18v2h-18z"/><path d="m24 16h2v18h-2z"/></svg><svg viewBox="0 0 50 50" enable-background="new 0 0 50 50" width="32" height="32" id="pointer" y="1280"><path d="m33 38h-12c-0.6 0-1-0.4-1-1 0-1.5-0.7-2.4-1.8-3.8-0.6-0.7-1.3-1.6-2-2.7-1.9-3-3.6-6.6-4-7.9s-0.1-2.2 0.3-2.7c0.4-0.6 1.2-0.9 2.1-0.9 1.2 0 2.4 1 3.5 2.3v-10.3c0-1.7 1.3-3 3-3s3 1.3 3 3v4.2c0.3-0.1 0.6-0.2 1-0.2 1.1 0 2 0.6 2.5 1.4 0.4-0.3 0.9-0.4 1.4-0.4 1.4 0 2.5 0.9 2.9 2.2 0.3-0.1 0.7-0.2 1.1-0.2 1.7 0 3 1.3 3 3v3c0 2.6-0.5 4.7-1 6.7s-1 3.9-1 6.3c0 0.6-0.4 1-1 1zm-11.1-2h10.1c0.1-2.2 0.6-4 1-5.8 0.5-2 1-3.9 1-6.2v-3c0-0.6-0.4-1-1-1s-1 0.4-1 1v1c0 0.6-0.4 1-1 1s-1-0.4-1-1v-3c0-0.6-0.4-1-1-1s-1 0.4-1 1v2c0 0.6-0.4 1-1 1s-1-0.4-1-1v-3c0-0.6-0.4-1-1-1s-1 0.4-1 1v2c0 0.6-0.4 1-1 1s-1-0.4-1-1v-9c0-0.6-0.4-1-1-1s-1 0.4-1 1v15c0 0.6-0.4 1-1 1s-1-0.4-1-1v-0.8c-0.9-2.3-2.8-4.2-3.5-4.2-0.2 0-0.4 0-0.5 0.1s-0.1 0.4 0 0.9c0.3 1.1 1.8 4.3 3.8 7.5 0.6 1 1.2 1.7 1.8 2.5 1.1 1.2 2.1 2.3 2.3 4z"/></svg><svg viewBox="0 0 50 50" enable-background="new 0 0 50 50" width="32" height="32" id="question" y="1312"><path d="m25 42c-9.4 0-17-7.6-17-17s7.6-17 17-17 17 7.6 17 17-7.6 17-17 17zm0-32c-8.3 0-15 6.7-15 15s6.7 15 15 15 15-6.7 15-15-6.7-15-15-15z"/><path d="m19.8 19.6c0.3-0.8 0.6-1.4 1.2-1.9 0.5-0.5 1.1-0.9 1.9-1.2s1.6-0.4 2.5-0.4c0.7 0 1.4 0.1 2 0.3s1.2 0.5 1.7 0.9 0.9 0.9 1.1 1.5c0.3 0.6 0.4 1.3 0.4 2 0 1-0.2 1.8-0.6 2.5s-1 1.3-1.6 2l-1.3 1.3c-0.3 0.3-0.6 0.6-0.7 0.9-0.2 0.3-0.3 0.7-0.3 1.1-0.1 0.4-0.1 0.7-0.1 1.5h-1.6c0-0.8 0-1.1 0.1-1.7 0.1-0.5 0.3-1 0.5-1.5 0.2-0.4 0.5-0.8 0.9-1.2s0.9-0.8 1.4-1.4c0.5-0.5 0.9-1 1.2-1.5s0.5-1.2 0.5-1.8c0-0.5-0.1-1-0.3-1.4s-0.5-0.8-0.8-1.1-0.7-0.5-1.2-0.7-0.9-0.3-1.4-0.3c-0.7 0-1.3 0.1-1.8 0.4-0.5 0.2-1 0.6-1.3 1s-0.6 0.9-0.8 1.5-0.4 0.9-0.4 1.6h-1.6c0-0.9 0.1-1.6 0.4-2.4zm6.2 12.4v2h-2v-2h2z"/></svg><svg viewBox="0 0 50 50" enable-background="new 0 0 50 50" width="32" height="32" id="redo" y="1344"><path d="m25 38c-7.2 0-13-5.8-13-13s5.8-13 13-13c5.4 0 10.1 3.4 11.9 8.7l-1.9 0.7c-1.5-4.6-5.4-7.4-10-7.4-6.1 0-11 4.9-11 11s4.9 11 11 11c4.3 0 8.2-2.5 10-6.4l1.8 0.8c-2.1 4.6-6.7 7.6-11.8 7.6z"/><path d="m38 22h-8v-2h6v-6h2z"/></svg><svg viewBox="0 0 50 50" enable-background="new 0 0 50 50" width="32" height="32" id="refresh" y="1376"><path d="m25 38c-7.2 0-13-5.8-13-13 0-3.2 1.2-6.2 3.3-8.6l1.5 1.3c-1.8 2-2.8 4.6-2.8 7.3 0 6.1 4.9 11 11 11 1.6 0 3.1-0.3 4.6-1l0.8 1.8c-1.7 0.8-3.5 1.2-5.4 1.2z"/><path d="m34.7 33.7l-1.5-1.3c1.8-2 2.8-4.6 2.8-7.3 0-6.1-4.9-11-11-11-1.6 0-3.1 0.3-4.6 1l-0.8-1.8c1.7-0.8 3.5-1.2 5.4-1.2 7.2 0 13 5.8 13 13 0 3.1-1.2 6.2-3.3 8.6z"/><path d="m18 24h-2v-6h-6v-2h8z"/><path d="m40 34h-8v-8h2v6h6z"/></svg><svg viewBox="0 0 50 50" enable-background="new 0 0 50 50" width="32" height="32" id="retweet" y="1408"><path d="m38 35h-2v-18c0-0.6-0.4-1-1-1h-17v-2h17c1.7 0 3 1.3 3 3v18z"/><path d="m37 36.5l-6.8-7.8 1.6-1.4 5.2 6.2 5.2-6.2 1.6 1.4z"/><path d="m32 36h-17c-1.7 0-3-1.3-3-3v-18h2v18c0 0.6 0.4 1 1 1h17v2z"/><path d="m18.2 22.7l-5.2-6.2-5.2 6.2-1.6-1.4 6.8-7.8 6.8 7.8z"/></svg><svg viewBox="0 0 50 50" enable-background="new 0 0 50 50" width="32" height="32" id="sc-facebook" y="1440"><path d="m26 20v-3c0-1.3 0.3-2 2.4-2h2.6v-5h-4c-5 0-7 3.3-7 7v3h-4v5h4v15h6v-15h4.4l0.6-5h-5z"/></svg><svg viewBox="0 0 50 50" enable-background="new 0 0 50 50" width="32" height="32" id="sc-github" y="1472"><path fill="#181616" clip-rule="evenodd" d="m25 10c-8.3 0-15 6.7-15 15 0 6.6 4.3 12.2 10.3 14.2 0.8 0.1 1-0.3 1-0.7v-2.6c-4.2 0.9-5.1-2-5.1-2-0.7-1.7-1.7-2.2-1.7-2.2-1.4-0.9 0.1-0.9 0.1-0.9 1.5 0.1 2.3 1.5 2.3 1.5 1.3 2.3 3.5 1.6 4.4 1.2 0.1-1 0.5-1.6 1-2-3.3-0.4-6.8-1.7-6.8-7.4 0-1.6 0.6-3 1.5-4-0.2-0.4-0.7-1.9 0.1-4 0 0 1.3-0.4 4.1 1.5 1.2-0.3 2.5-0.5 3.8-0.5s2.6 0.2 3.8 0.5c2.9-1.9 4.1-1.5 4.1-1.5 0.8 2.1 0.3 3.6 0.1 4 1 1 1.5 2.4 1.5 4 0 5.8-3.5 7-6.8 7.4 0.5 0.5 1 1.4 1 2.8v4.1c0 0.4 0.3 0.9 1 0.7 6-2 10.2-7.6 10.2-14.2 0.1-8.2-6.6-14.9-14.9-14.9z" fill-rule="evenodd"/></svg><svg viewBox="0 0 50 50" enable-background="new 0 0 50 50" width="32" height="32" id="sc-google-plus" y="1504"><path d="m29.3 31.1c-0.6-0.8-1.2-1.4-2-2-0.7-0.6-1.6-1.1-2.1-1.9-1.1-1.8 1.3-3.2 2.3-4.4 2.4-2.6 1.7-7.5-1.3-9.4 0.7 0 1.8 0.2 2.5 0 0.8-0.2 1.7-1 2.4-1.4h-7.7c-2.4 0-4.9 0.3-6.8 1.9-2.2 1.8-3.3 4.7-2.4 7.5 1 3.2 4.4 4.6 7.5 4.2-0.2 0.7-0.5 1.2-0.4 1.9 0.1 0.9 0.6 1.7 1.1 2.4-2.8 0.1-6.2 0.6-8.5 2.5-2.1 1.8-2.8 5-0.9 7.2 2 2.3 5.6 2.7 8.4 2.5 2.5-0.2 4.9-1 6.7-2.7 2.3-2.3 3.1-5.8 1.2-8.3-0.4-0.4 0.3 0.4 0 0zm-7-6.5c-5.1 0-7.4-11.3-1.5-11.3 2.9 0 4.2 3.2 4.7 5.7 0.4 2.4-0.1 5.6-3.2 5.6zm5 13.5c-1.7 2.9-6.4 2.6-9 1.5-2.7-1.2-4.1-4.7-1.6-7 1.1-1 2.7-1.4 4.1-1.6 0.8-0.1 1.6-0.2 2.4-0.1 0.6 0.1 0.9 0.4 1.4 0.7 2.1 1.5 4.3 3.8 2.7 6.5-0.3 0.6 0.3-0.6 0 0z"/><path d="m40 16h-4v-4h-2v4h-4v2h4v4h2v-4h4z"/></svg><svg viewBox="0 0 50 50" enable-background="new 0 0 50 50" width="32" height="32" id="sc-instagram" y="1536"><path fill="#231F20" clip-rule="evenodd" d="m35 23h-2.3c0.2 0.6 0.3 1.3 0.3 2 0 4.4-3.6 8-8 8s-8-3.6-8-8c0-0.7 0.1-1.4 0.3-2h-2.3v11c0 0.6 0.4 1 1 1h18c0.6 0 1-0.4 1-1v-11zm0-7c0-0.6-0.4-1-1-1h-3c-0.6 0-1 0.4-1 1v3c0 0.6 0.4 1 1 1h3c0.6 0 1-0.4 1-1v-3zm-10 4c-2.8 0-5 2.2-5 5s2.2 5 5 5 5-2.2 5-5-2.2-5-5-5m10 18h-20c-1.7 0-3-1.3-3-3v-20c0-1.7 1.3-3 3-3h20c1.7 0 3 1.3 3 3v20c0 1.7-1.3 3-3 3" fill-rule="evenodd"/></svg><svg viewBox="0 0 50 50" enable-background="new 0 0 50 50" width="32" height="32" id="sc-linkedin" y="1568"><path d="m36.1 12h-22.2c-1.1 0-1.9 0.8-1.9 1.9v22.2c0 1 0.9 1.9 1.9 1.9h22.2c1.1 0 1.9-0.8 1.9-1.9v-22.2c0-1.1-0.9-1.9-1.9-1.9zm-16.1 22h-4v-12h4v12zm-2-13.6c-1.3 0-2.4-1.1-2.4-2.4s1.1-2.4 2.4-2.4 2.4 1.1 2.4 2.4-1.1 2.4-2.4 2.4zm16 13.6h-4v-6c0-1.6-0.4-3.2-2-3.2s-2 1.6-2 3.2v6h-4v-12h4v1.4h0.2c0.5-1 1.8-1.8 3.3-1.8 3.7 0 4.5 2.4 4.5 5.4v7z" fill="#231F20"/></svg><svg viewBox="0 0 50 50" enable-background="new 0 0 50 50" width="32" height="32" id="sc-twitter" y="1600"><path d="m39.2 16.8c-1.1 0.5-2.2 0.8-3.5 1 1.2-0.8 2.2-1.9 2.7-3.3-1.2 0.7-2.5 1.2-3.8 1.5-1.1-1.2-2.7-1.9-4.4-1.9-3.3 0-6.1 2.7-6.1 6.1 0 0.5 0.1 0.9 0.2 1.4-5-0.2-9.5-2.7-12.5-6.3-0.5 0.7-0.8 1.7-0.8 2.8 0 2.1 1.1 4 2.7 5-1 0-1.9-0.3-2.7-0.8v0.1c0 2.9 2.1 5.4 4.9 5.9-0.5 0.1-1 0.2-1.6 0.2-0.4 0-0.8 0-1.1-0.1 0.8 2.4 3 4.2 5.7 4.2-2.1 1.6-4.7 2.6-7.5 2.6-0.5 0-1 0-1.4-0.1 2.4 1.9 5.6 2.9 9 2.9 11.1 0 17.2-9.2 17.2-17.2v-0.8c1.2-0.9 2.2-1.9 3-3.2z"/></svg><svg viewBox="0 0 50 50" enable-background="new 0 0 50 50" width="32" height="32" id="sc-vk" y="1632"><path clip-rule="evenodd" d="m25.1 35.9h2s0.6-0.1 0.9-0.4c0.3-0.3 0.3-0.9 0.3-0.9s0-2.6 1.2-3c1.2-0.4 2.8 2.6 4.4 3.7 1.2 0.9 2.1 0.7 2.1 0.7l4.4-0.1s2.3-0.1 1.2-2c-0.1-0.1-0.6-1.3-3.3-3.8-2.8-2.6-2.4-2.1 0.9-6.6 2-2.7 2.8-4.3 2.6-5.1-0.2-0.7-1.7-0.5-1.7-0.5h-5s-0.4-0.1-0.6 0.1c-0.3 0.2-0.4 0.5-0.4 0.5s-0.8 2.1-1.8 3.9c-2.2 3.7-3.1 3.9-3.4 3.7-0.8-0.5-0.6-2.2-0.6-3.3 0-3.6 0.6-5.1-1.1-5.5-0.5-0.1-0.9-0.2-2.3-0.2-1.8 0-3.3 0-4.1 0.4-0.6 0.3-1 0.9-0.7 0.9s1.1 0.2 1.5 0.7c0.4 0.9 0.4 2.4 0.4 2.4s0.3 4.3-0.7 4.8c-0.7 0.4-1.6-0.4-3.6-3.8-1-1.7-1.8-3.7-1.8-3.7s-0.1-0.4-0.4-0.6c-0.3-0.2-0.8-0.3-0.8-0.3h-4.7s-0.7 0-1 0.3c-0.2 0.3 0 0.8 0 0.8s3.7 8.6 7.9 13c3.9 4.2 8.2 3.9 8.2 3.9z" fill-rule="evenodd"/></svg><svg viewBox="0 0 50 50" enable-background="new 0 0 50 50" width="32" height="32" id="search" y="1664"><path d="m23 36c-7.2 0-13-5.8-13-13s5.8-13 13-13 13 5.8 13 13-5.8 13-13 13zm0-24c-6.1 0-11 4.9-11 11s4.9 11 11 11 11-4.9 11-11-4.9-11-11-11z"/><path d="m32.682 31.267l8.98 8.98-1.414 1.414-8.98-8.98z"/></svg><svg viewBox="0 0 50 50" enable-background="new 0 0 50 50" width="32" height="32" id="share-apple" y="1696"><path d="m30.3 13.7l-5.3-5.3-5.3 5.3-1.4-1.4 6.7-6.7 6.7 6.7z"/><path d="m24 7h2v21h-2z"/><path d="m35 40h-20c-1.7 0-3-1.3-3-3v-18c0-1.7 1.3-3 3-3h7v2h-7c-0.6 0-1 0.4-1 1v18c0 0.6 0.4 1 1 1h20c0.6 0 1-0.4 1-1v-18c0-0.6-0.4-1-1-1h-7v-2h7c1.7 0 3 1.3 3 3v18c0 1.7-1.3 3-3 3z"/></svg><svg viewBox="0 0 50 50" enable-background="new 0 0 50 50" width="32" height="32" id="share-google" y="1728"><path d="m15 30c-2.8 0-5-2.2-5-5s2.2-5 5-5 5 2.2 5 5-2.2 5-5 5zm0-8c-1.7 0-3 1.3-3 3s1.3 3 3 3 3-1.3 3-3-1.3-3-3-3z"/><path d="m35 20c-2.8 0-5-2.2-5-5s2.2-5 5-5 5 2.2 5 5-2.2 5-5 5zm0-8c-1.7 0-3 1.3-3 3s1.3 3 3 3 3-1.3 3-3-1.3-3-3-3z"/><path d="m35 40c-2.8 0-5-2.2-5-5s2.2-5 5-5 5 2.2 5 5-2.2 5-5 5zm0-8c-1.7 0-3 1.3-3 3s1.3 3 3 3 3-1.3 3-3-1.3-3-3-3z"/><path d="m19.007 25.885l12.88 6.44-0.895 1.788-12.88-6.44z"/><path d="m30.993 15.885l0.894 1.79-12.88 6.438-0.894-1.79z"/></svg><svg viewBox="0 0 50 50" enable-background="new 0 0 50 50" width="32" height="32" id="star" y="1760"><path d="m15.2 40.6c-0.2 0-0.4-0.1-0.6-0.2-0.4-0.3-0.5-0.7-0.4-1.1l3.9-12-10.2-7.5c-0.4-0.3-0.5-0.7-0.4-1.1s0.5-0.7 1-0.7h12.7l3.8-12.1c0.1-0.4 0.5-0.7 1-0.7s0.8 0.3 1 0.7l3.9 12.1h12.7c0.4 0 0.8 0.2 1 0.6s0 0.9-0.4 1.1l-10.2 7.4 3.9 12c0.1 0.4 0 0.9-0.4 1.1s-0.8 0.3-1.2 0l-10.3-7.2-10.2 7.4c-0.2 0.1-0.4 0.2-0.6 0.2zm10.8-9.9c0.2 0 0.4 0.1 0.6 0.2l8.3 6.1-3.2-9.8c-0.1-0.4 0-0.9 0.4-1.1l8.3-6.1h-10.3c-0.4 0-0.8-0.3-1-0.7l-3.1-9.8-3.2 9.8c-0.1 0.4-0.5 0.7-1 0.7h-10.3l8.3 6.1c0.4 0.3 0.5 0.7 0.4 1.1l-3.1 9.8 8.3-6.1c0.2-0.1 0.4-0.2 0.6-0.2z"/></svg><svg viewBox="0 0 50 50" enable-background="new 0 0 50 50" width="32" height="32" id="tag" y="1792"><path d="m22 40.1c-0.9 0-1.7-0.3-2.3-0.9l-8.9-8.9c-1.2-1.2-1.2-3.3 0-4.5l11.9-11.9c1-1 3-1.8 4.5-1.8h7.6c1.8 0 3.2 1.4 3.2 3.2v7.6c0 1.5-0.8 3.4-1.8 4.5l-11.9 11.8c-0.6 0.6-1.4 0.9-2.3 0.9zm5.2-26.1c-1 0-2.4 0.6-3 1.3l-11.9 11.9c-0.5 0.5-0.5 1.2 0 1.7l8.9 8.9c0.5 0.4 1.2 0.4 1.7 0l11.9-11.9c0.7-0.7 1.3-2.1 1.3-3v-7.6c0-0.7-0.5-1.2-1.2-1.2h-7.7z"/><path d="m30 24c-2.2 0-4-1.8-4-4s1.8-4 4-4 4 1.8 4 4-1.8 4-4 4zm0-6c-1.1 0-2 0.9-2 2s0.9 2 2 2 2-0.9 2-2-0.9-2-2-2z"/></svg><svg viewBox="0 0 50 50" enable-background="new 0 0 50 50" width="32" height="32" id="trash" y="1824"><path d="m20 18h2v16h-2z"/><path d="m24 18h2v16h-2z"/><path d="m28 18h2v16h-2z"/><path d="m12 12h26v2h-26z"/><path d="m30 12h-2v-1c0-0.6-0.4-1-1-1h-4c-0.6 0-1 0.4-1 1v1h-2v-1c0-1.7 1.3-3 3-3h4c1.7 0 3 1.3 3 3v1z"/><path d="m31 40h-12c-1.6 0-3-1.3-3.2-2.9l-1.8-24 2-0.2 1.8 24c0 0.6 0.6 1.1 1.2 1.1h12c0.6 0 1.1-0.5 1.2-1.1l1.8-24 2 0.2-1.8 24c-0.2 1.6-1.6 2.9-3.2 2.9z"/></svg><svg viewBox="0 0 50 50" enable-background="new 0 0 50 50" width="32" height="32" id="trophy" y="1856"><path d="m28.6 29.4c3-2.3 7.4-5.7 7.4-18.4v-1h-22v1c0 12.7 4.5 16.1 7.4 18.4 1.7 1.3 2.6 2 2.6 3.6v3c-1.6 0.2-3.2 0.8-3.8 2h-2.2c-1.1 0-2 0.9-2 2h18c0-1.1-0.9-2-2-2h-2.2c-0.6-1.2-2.1-1.8-3.8-2v-3c0-1.6 0.8-2.3 2.6-3.6zm-3.6 0.5c-0.6-0.8-1.5-1.5-2.3-2.1-2.7-2.1-6.4-4.9-6.6-15.8h18c-0.2 10.8-3.9 13.7-6.6 15.8-1 0.7-1.9 1.3-2.5 2.1z"/><path d="m18.8 27c-0.1 0-10.8-2.3-10.8-14v-1h7v2h-5c0.6 9.2 9.1 11 9.2 11l-0.4 2z"/><path d="m31.2 27l-0.4-2c0.4-0.1 8.6-1.9 9.2-11h-5v-2h7v1c0 11.7-10.7 14-10.8 14z"/></svg><svg viewBox="0 0 50 50" enable-background="new 0 0 50 50" width="32" height="32" id="undo" y="1888"><path d="m25 38c-5.1 0-9.7-3-11.8-7.6l1.8-0.8c1.8 3.9 5.7 6.4 10 6.4 6.1 0 11-4.9 11-11s-4.9-11-11-11c-4.6 0-8.5 2.8-10.1 7.3l-1.9-0.7c1.9-5.2 6.6-8.6 12-8.6 7.2 0 13 5.8 13 13s-5.8 13-13 13z"/><path d="m20 22h-8v-8h2v6h6z"/></svg><svg viewBox="0 0 50 50" enable-background="new 0 0 50 50" width="32" height="32" id="unlock" y="1920"><path d="m18 23h-2v-4c0-5 4-9 9-9 4.5 0 8.4 3.4 8.9 7.9l-2 0.2c-0.4-3.5-3.4-6.1-6.9-6.1-3.9 0-7 3.1-7 7v4z"/><path d="m33 40h-16c-1.7 0-3-1.3-3-3v-12c0-1.7 1.3-3 3-3h16c1.7 0 3 1.3 3 3v12c0 1.7-1.3 3-3 3zm-16-16c-0.6 0-1 0.4-1 1v12c0 0.6 0.4 1 1 1h16c0.6 0 1-0.4 1-1v-12c0-0.6-0.4-1-1-1h-16z"/><circle cy="28" cx="25" r="2"/><path d="m25.5 28h-1l-1 6h3z"/></svg><svg viewBox="0 0 50 50" enable-background="new 0 0 50 50" width="32" height="32" id="user" y="1952"><path d="m25.1 42c-9.4 0-17-7.6-17-17s7.6-17 17-17 17 7.6 17 17-7.7 17-17 17zm0-32c-8.3 0-15 6.7-15 15s6.7 15 15 15 15-6.7 15-15-6.8-15-15-15z"/><path d="m15.3 37.3l-1.8-0.8c0.5-1.2 2.1-1.9 3.8-2.7s3.8-1.7 3.8-2.8v-1.5c-0.6-0.5-1.6-1.6-1.8-3.2-0.5-0.5-1.3-1.4-1.3-2.6 0-0.7 0.3-1.3 0.5-1.7-0.2-0.8-0.4-2.3-0.4-3.5 0-3.9 2.7-6.5 7-6.5 1.2 0 2.7 0.3 3.5 1.2 1.9 0.4 3.5 2.6 3.5 5.3 0 1.7-0.3 3.1-0.5 3.8 0.2 0.3 0.4 0.8 0.4 1.4 0 1.3-0.7 2.2-1.3 2.6-0.2 1.6-1.1 2.6-1.7 3.1v1.6c0 0.9 1.8 1.6 3.4 2.2 1.9 0.7 3.9 1.5 4.6 3.1l-1.9 0.7c-0.3-0.8-1.9-1.4-3.4-1.9-2.2-0.8-4.7-1.7-4.7-4v-2.6l0.5-0.3s1.2-0.8 1.2-2.4v-0.7l0.6-0.3c0.1 0 0.6-0.3 0.6-1.1 0-0.2-0.2-0.5-0.3-0.6l-0.4-0.4 0.2-0.5s0.5-1.6 0.5-3.6c0-1.9-1.1-3.3-2-3.3h-0.6l-0.3-0.5c0-0.4-0.7-0.8-1.9-0.8-3.1 0-5 1.7-5 4.5 0 1.3 0.5 3.5 0.5 3.5l0.1 0.5-0.4 0.5c-0.1 0-0.3 0.3-0.3 0.7 0 0.5 0.6 1.1 0.9 1.3l0.4 0.3v0.5c0 1.5 1.3 2.3 1.3 2.4l0.5 0.3v2.6c0 2.4-2.6 3.6-5 4.6-1.1 0.4-2.6 1.1-2.8 1.6z"/></svg></svg>
