<?xml version="1.0" encoding="utf-8"?>
<svg xmlns="http://www.w3.org/2000/svg"
	xmlns:xlink="http://www.w3.org/1999/xlink"
	width="162px" height="152px">
<path fill="rgb(0,187,211)" fill-rule="evenodd" d="M 81 0.26C 130.69 0.26 161.56 25.64 161.56 66.49 161.56 107.95 131.45 132.71 81 132.71 79.88 132.71 78.77 132.68 77.66 132.64 70.1 141.75 56.52 151.74 33.39 151.74 33.39 151.74 24.77 151.74 24.77 151.74 24.77 151.74 29.84 144.78 29.84 144.78 33.68 139.52 36.19 132.82 37.48 124.36 13.56 113.67 0.44 93.24 0.44 66.49 0.44 25.64 31.31 0.26 81 0.26ZM 43.87 117.55C 43.87 117.55 46.98 118.78 46.98 118.78 46.98 118.78 46.61 122.11 46.61 122.11 45.73 130 43.98 136.74 41.29 142.51 57.46 140.49 66.89 132.44 72.12 125.53 72.12 125.53 73.5 123.71 73.5 123.71 73.5 123.71 76.44 123.83 76.44 123.83 77.95 123.89 79.46 123.95 81 123.95 145.8 123.95 152.8 83.76 152.8 66.49 152.8 30.5 125.96 9.02 81 9.02 36.04 9.02 9.2 30.5 9.2 66.49 9.2 97.36 28.05 111.29 43.87 117.55Z"/>
</svg>