<?xml version="1.0" encoding="utf-8"?>
<!-- Generator: Adobe Illustrator 18.1.1, SVG Export Plug-In . SVG Version: 6.00 Build 0)  -->
<!DOCTYPE svg PUBLIC "-//W3C//DTD SVG 1.1//EN" "http://www.w3.org/Graphics/SVG/1.1/DTD/svg11.dtd">
<svg version="1.1" id="Ebene_1" xmlns="http://www.w3.org/2000/svg" xmlns:xlink="http://www.w3.org/1999/xlink" x="0px" y="0px"
	 viewBox="0 0 150 150" enable-background="new 0 0 150 150" xml:space="preserve">
<path fill="#263238" d="M45,126h-6l3.6-4.8c2.4-3.3,3.9-7.5,4.8-12.6C32.4,101.7,24,88.8,24,72c0-25.8,19.5-42,51-42s51,16.2,51,42
	c0,26.4-19.2,42-51,42h-2.1C68.1,119.7,59.7,126,45,126z M75,36c-28.2,0-45,13.5-45,36c0,19.2,11.7,28.2,21.6,32.1l2.1,0.9l-0.3,2.4
	c-0.6,4.8-1.5,9-3.3,12.6c9.9-1.2,15.6-6.3,18.9-10.5l0.9-1.2H75c40.5,0,45-25.2,45-36C120,49.5,103.2,36,75,36z"/>
</svg>
