<?xml version="1.0" encoding="utf-8"?>
<!-- Generator: Adobe Illustrator 18.1.1, SVG Export Plug-In . SVG Version: 6.00 Build 0)  -->
<!DOCTYPE svg PUBLIC "-//W3C//DTD SVG 1.1//EN" "http://www.w3.org/Graphics/SVG/1.1/DTD/svg11.dtd">
<svg version="1.1" id="Ebene_1" xmlns="http://www.w3.org/2000/svg" xmlns:xlink="http://www.w3.org/1999/xlink" x="0px" y="0px"
	 viewBox="0 0 150 150" enable-background="new 0 0 150 150" xml:space="preserve">
<path fill="#263238" d="M75.3,126c-28.2,0-51-22.8-51-51s22.8-51,51-51s51,22.8,51,51S103.2,126,75.3,126z M75.3,30
	c-24.9,0-45,20.1-45,45s20.1,45,45,45s45-20.1,45-45S99.9,30,75.3,30z"/>
<g>
	<g>
		<path fill="#263238" d="M100.9,100.9h-7.2c0-24.6-20-44.6-44.6-44.6v-7.2C77.7,49.1,100.9,72.3,100.9,100.9z"/>
	</g>
	<g>
		<path fill="#263238" d="M84,100.9h-7.2c0-15.3-12.4-27.7-27.7-27.7V66C68.4,66,84,81.6,84,100.9z"/>
	</g>
	<g>
		<circle fill="#263238" cx="55.1" cy="94.9" r="6"/>
	</g>
</g>
</svg>
