<?xml version="1.0" encoding="utf-8"?>
<!-- Generator: Adobe Illustrator 18.1.1, SVG Export Plug-In . SVG Version: 6.00 Build 0)  -->
<!DOCTYPE svg PUBLIC "-//W3C//DTD SVG 1.1//EN" "http://www.w3.org/Graphics/SVG/1.1/DTD/svg11.dtd">
<svg version="1.1" id="Ebene_1" xmlns="http://www.w3.org/2000/svg" xmlns:xlink="http://www.w3.org/1999/xlink" x="0px" y="0px"
	 viewBox="0 0 150 150" enable-background="new 0 0 150 150" xml:space="preserve">
<path fill="#263238" d="M75,102c-15,0-27-12-27-27s12-27,27-27s27,12,27,27S90,102,75,102z M75,54c-11.7,0-21,9.3-21,21
	s9.3,21,21,21s21-9.3,21-21S86.7,54,75,54z"/>
<path fill="#263238" d="M83.1,132H66.9l-4.5-13.8c-3-0.9-6-2.1-8.7-3.6l-13.2,6.6l-11.4-11.4l6.6-13.2c-1.5-2.7-2.7-5.7-3.6-8.7
	L18,83.1V66.9l13.8-4.5c0.9-3,2.1-6,3.6-8.7l-6.6-13.2l11.4-11.4l13.2,6.6c2.7-1.5,5.7-2.7,8.7-3.6L66.9,18h16.2l4.5,13.8
	c3,0.9,6,2.1,8.7,3.6l13.2-6.6l11.4,11.4l-6.6,13.2c1.5,2.7,2.7,5.7,3.6,8.7l13.8,4.5v16.2l-13.8,4.5c-0.9,3-2.1,6-3.6,8.7l6.6,13.2
	l-11.4,11.4L96.3,114c-2.7,1.5-5.7,2.7-8.7,3.6L83.1,132z M71.1,126h7.8l4.2-12.9l1.5-0.3c3.6-0.9,6.9-2.4,10.2-4.2l1.5-0.9l12,6
	l5.4-5.4l-6-12l0.9-1.5c1.8-3,3.3-6.6,4.2-10.2l0.3-1.5l12.9-4.2v-7.8l-12.9-4.2l-0.3-1.5c-0.9-3.6-2.4-6.9-4.2-10.2l-0.9-1.5l6-12
	l-5.4-5.4l-12,6l-1.5-0.9c-3.3-1.8-6.6-3.3-10.2-4.2l-1.5-0.3L78.9,24h-7.8l-4.2,12.9l-1.5,0.3c-3.6,0.9-6.9,2.4-10.2,4.2l-1.5,0.9
	l-12-6l-5.4,5.4l6,12l-0.9,1.5c-1.8,3-3.3,6.6-4.2,10.2l-0.3,1.5L24,71.1v7.8l12.9,4.2l0.3,1.5c0.9,3.6,2.4,6.9,4.2,10.2l0.9,1.5
	l-6,12l5.4,5.4l12-6l1.5,0.9c3.3,1.8,6.6,3.3,10.2,4.2l1.5,0.3L71.1,126L71.1,126z"/>
</svg>
