<svg xmlns="http://www.w3.org/2000/svg" xmlns:xlink="http://www.w3.org/1999/xlink" preserveAspectRatio="xMidYMid" width="21" height="18" viewBox="0 0 21 18">
  <defs>
    <style>

      .cls-2 {
        fill: #00bcd4;
      }
    </style>
  </defs>
  <path d="M10.347,17.158 C10.347,17.158 10.000,17.440 10.000,17.440 C10.000,17.440 9.653,17.158 9.653,17.158 C2.058,10.977 0.000,8.801 0.000,5.267 C0.000,2.361 2.367,-0.003 5.275,-0.003 C7.705,-0.003 9.079,1.376 10.000,2.414 C10.921,1.376 12.295,-0.003 14.725,-0.003 C17.633,-0.003 19.999,2.361 19.999,5.267 C19.999,8.801 17.942,10.977 10.347,17.158 ZM14.725,1.095 C12.616,1.095 11.516,2.349 10.633,3.357 C10.633,3.357 10.000,4.067 10.000,4.067 C10.000,4.067 9.367,3.357 9.367,3.357 C8.484,2.349 7.383,1.095 5.275,1.095 C2.973,1.095 1.099,2.967 1.099,5.267 C1.099,8.295 3.006,10.319 10.000,16.024 C16.994,10.319 18.901,8.295 18.901,5.267 C18.901,2.967 17.027,1.095 14.725,1.095 Z" id="path-1" class="cls-2" fill-rule="evenodd"/>
</svg>
