<svg xmlns="http://www.w3.org/2000/svg" xmlns:xlink="http://www.w3.org/1999/xlink" preserveAspectRatio="xMidYMid" width="17" height="20" viewBox="0 0 17 20">
  <defs>
    <style>

      .cls-2 {
        fill: #00bcd4;
      }
    </style>
  </defs>
  <path d="M2.497,0.002 C2.497,0.002 11.652,0.002 11.652,0.002 C11.652,0.002 16.255,4.601 16.255,4.601 C16.255,4.601 16.255,17.498 16.255,17.498 C16.255,18.878 15.135,19.997 13.753,19.997 C13.753,19.997 2.497,19.997 2.497,19.997 C1.115,19.997 -0.005,18.878 -0.005,17.498 C-0.005,17.498 -0.005,2.502 -0.005,2.502 C-0.005,1.122 1.115,0.002 2.497,0.002 ZM11.252,1.252 C11.252,2.740 11.252,3.751 11.252,3.751 C11.252,4.441 11.811,5.001 12.502,5.001 C12.502,5.001 15.004,5.001 15.004,5.001 C15.004,5.001 11.252,1.252 11.252,1.252 ZM1.246,17.498 C1.246,18.188 1.806,18.748 2.497,18.748 C2.497,18.748 13.753,18.748 13.753,18.748 C14.444,18.748 15.004,18.188 15.004,17.498 C15.004,17.498 15.004,6.251 15.004,6.251 C13.548,6.251 12.502,6.251 12.502,6.251 C11.121,6.251 10.001,5.132 10.001,3.751 C10.001,3.751 9.972,2.749 9.983,1.252 C9.983,1.252 2.497,1.252 2.497,1.252 C1.806,1.252 1.246,1.811 1.246,2.502 C1.246,2.502 1.246,17.498 1.246,17.498 Z" id="path-1" class="cls-2" fill-rule="evenodd"/>
</svg>
