<svg xmlns="http://www.w3.org/2000/svg" xmlns:xlink="http://www.w3.org/1999/xlink" preserveAspectRatio="xMidYMid" width="21" height="20" viewBox="0 0 21 20">
  <defs>
    <style>

      .cls-2 {
        fill: #00bcd4;
      }
    </style>
  </defs>
  <path d="M17.504,17.498 C17.504,17.498 2.496,17.498 2.496,17.498 C1.114,17.498 -0.006,16.379 -0.006,14.999 C-0.006,14.999 -0.006,2.502 -0.006,2.502 C-0.006,1.121 1.114,0.002 2.496,0.002 C2.496,0.002 17.504,0.002 17.504,0.002 C18.886,0.002 20.006,1.121 20.006,2.502 C20.006,2.502 20.006,14.999 20.006,14.999 C20.006,16.379 18.886,17.498 17.504,17.498 ZM18.755,2.502 C18.755,1.811 18.195,1.252 17.504,1.252 C17.504,1.252 2.496,1.252 2.496,1.252 C1.805,1.252 1.245,1.811 1.245,2.502 C1.245,2.502 1.245,14.999 1.245,14.999 C1.245,15.689 1.805,16.248 2.496,16.248 C2.496,16.248 17.504,16.248 17.504,16.248 C18.195,16.248 18.755,15.689 18.755,14.999 C18.755,14.999 18.755,2.502 18.755,2.502 ZM15.628,13.124 C13.885,14.071 11.658,13.883 10.904,12.652 C10.148,11.422 10.950,9.657 12.693,8.710 C13.925,8.042 15.288,7.970 16.254,8.414 C16.254,8.414 16.254,3.848 16.254,3.848 C16.254,3.848 9.375,4.905 9.375,4.905 C9.375,4.905 9.380,11.215 9.375,11.250 C9.452,12.342 8.858,13.635 7.499,14.374 C5.755,15.321 3.529,15.133 2.774,13.902 C2.018,12.672 2.820,10.907 4.564,9.960 C5.795,9.291 7.158,9.220 8.124,9.663 C8.124,9.663 8.124,4.376 8.124,4.376 C8.124,4.031 8.404,3.751 8.749,3.751 C8.749,3.751 16.879,2.502 16.879,2.502 C17.224,2.502 17.504,2.782 17.504,3.127 C17.504,3.127 17.510,9.966 17.504,10.000 C17.582,11.092 16.988,12.386 15.628,13.124 ZM7.769,10.960 C7.135,10.460 6.143,10.459 5.032,11.036 C3.920,11.615 3.447,12.608 3.976,13.255 C4.504,13.903 5.854,13.997 6.945,13.382 C7.900,12.843 8.552,11.580 7.769,10.960 ZM15.894,9.705 C15.234,9.241 14.267,9.209 13.158,9.790 C12.049,10.371 11.579,11.366 12.109,12.012 C12.640,12.658 13.989,12.746 15.079,12.129 C16.071,11.567 16.748,10.304 15.894,9.705 ZM1.870,18.748 C1.870,18.748 18.130,18.748 18.130,18.748 C18.475,18.748 18.755,19.028 18.755,19.373 C18.755,19.717 18.475,19.997 18.130,19.997 C18.130,19.997 1.870,19.997 1.870,19.997 C1.525,19.997 1.245,19.717 1.245,19.373 C1.245,19.028 1.525,18.748 1.870,18.748 Z" id="path-1" class="cls-2" fill-rule="evenodd"/>
</svg>
